<svg height="512pt" viewBox="-4 0 512 512.235" width="512pt" xmlns="http://www.w3.org/2000/svg"><path d="M182.355 286.371h138.848v78.102H182.355zm0 0" fill="#f29c1f"/><path d="M416.66 156.203a59.27 59.27 0 01-34.71 34.711l-8.68-43.387zm-286.37-8.676l-8.68 43.387a59.26 59.26 0 01-34.712-34.71zm0 0" fill="#c03a2b"/><path d="M407.98 503.32h95.461v-7.722a136.766 136.766 0 00-3.992-32.977l-8.07-32.715c-9.363-34.125-40.73-57.515-76.106-56.754H88.285c-35.379-.761-66.746 22.63-76.105 56.754l-8.07 32.715a136.571 136.571 0 00-3.993 32.977v7.722zm0 0" fill="#4482c3"/><path d="M434.016 503.32H69.543l29.398-142.293c3.008-8.984 11.786-14.734 21.227-13.91h263.277c9.442-.824 18.22 4.926 21.227 13.91zm0 0" fill="#e57e25"/><path d="M381.95 121.492v121.492a60.707 60.707 0 01-60.747 60.746H182.355a60.699 60.699 0 01-60.746-60.746V121.492zm0 0" fill="#f0c419"/><path d="M165 216.95a8.68 8.68 0 01-8.68 8.679c-4.793 0-8.675-3.887-8.675-8.68s3.882-8.68 8.675-8.68a8.68 8.68 0 018.68 8.68zm0 26.034c0 4.793-3.887 8.676-8.68 8.676-4.793 0-8.675-3.883-8.675-8.676s3.882-8.68 8.675-8.68a8.68 8.68 0 018.68 8.68zm26.031 0c0 4.793-3.883 8.676-8.676 8.676s-8.68-3.883-8.68-8.676 3.887-8.68 8.68-8.68 8.676 3.887 8.676 8.68zm0 26.032c0 4.793-3.883 8.68-8.676 8.68s-8.68-3.887-8.68-8.68 3.887-8.676 8.68-8.676 8.676 3.883 8.676 8.676zm26.035 0c0 4.793-3.886 8.68-8.675 8.68-4.793 0-8.68-3.887-8.68-8.68s3.887-8.676 8.68-8.676a8.676 8.676 0 018.675 8.676zm138.848-52.066c0 4.792-3.887 8.679-8.676 8.679a8.68 8.68 0 010-17.36c4.79 0 8.676 3.887 8.676 8.68zm0 26.034a8.676 8.676 0 01-8.676 8.676c-4.793 0-8.68-3.883-8.68-8.676s3.887-8.68 8.68-8.68c4.79 0 8.676 3.887 8.676 8.68zm-26.035 0c0 4.793-3.883 8.676-8.676 8.676s-8.68-3.883-8.68-8.676 3.887-8.68 8.68-8.68 8.676 3.887 8.676 8.68zm0 26.032c0 4.793-3.883 8.68-8.676 8.68s-8.68-3.887-8.68-8.68 3.887-8.676 8.68-8.676 8.676 3.883 8.676 8.676zm-26.031 0c0 4.793-3.887 8.68-8.68 8.68s-8.676-3.887-8.676-8.68 3.883-8.676 8.676-8.676 8.68 3.883 8.68 8.676zm0 0" fill="#2c2f38"/><path d="M373.262 512a8.667 8.667 0 01-8.407-6.57l-15.722-62.852H154.426l-15.723 62.852a8.676 8.676 0 01-14.562 4.308 8.68 8.68 0 01-2.266-8.523l17.355-69.422a8.682 8.682 0 018.415-6.574h208.27a8.682 8.682 0 018.417 6.574l17.356 69.422a8.673 8.673 0 01-1.583 7.45 8.663 8.663 0 01-6.843 3.335zm0 0" fill="#e6e7e8"/><path d="M138.965 347.117h34.71v95.461h-34.71zm190.914 0h34.715v95.461h-34.715zm0 0" fill="#e6e7e8"/><path d="M416.66 156.203a152.64 152.64 0 01-34.71-3.906 342.67 342.67 0 01-20.22-4.77 465.435 465.435 0 00-109.953-17.359 465.435 465.435 0 00-109.949 17.36 342.67 342.67 0 01-20.219 4.769 152.665 152.665 0 01-34.71 3.906 59.26 59.26 0 0134.71-34.71c0-38.356 17.356-86.782 69.422-86.782h26.035V17.355C217.094 7.781 224.848.027 234.422 0h34.71c9.575.027 17.329 7.781 17.36 17.355v17.356h26.031c52.07 0 69.426 48.426 69.426 86.781a59.27 59.27 0 0134.711 34.711zm0 0" fill="#e64c3c"/><path d="M217.066 34.71v34.712c0 4.793-3.886 8.68-8.675 8.68a8.68 8.68 0 01-8.68-8.68V34.71zm86.782 0v34.712c0 4.793-3.887 8.68-8.68 8.68s-8.676-3.887-8.676-8.68V34.71zm0 0" fill="#c03a2b"/><path d="M292.805 242.984c-7.012 13.72-28.899 15.66-40.852 15.66-11.98 0-33.84-1.94-40.851-15.66a176.492 176.492 0 0040.851 5.118 176.492 176.492 0 0040.852-5.118zm-63.755-90.347a86.393 86.393 0 00-25.687-5.207 61.752 61.752 0 00-34.02 7.254c1.188-15.188 36.4-18.188 53.61-14.286a8.206 8.206 0 016.328 4.485 8.206 8.206 0 01-.23 7.754zm-3.304 26.836c0-10.278-7.773-18.606-17.355-18.606-9.586 0-17.36 8.328-17.36 18.606 0 10.273 7.774 18.601 17.36 18.601 9.582 0 17.355-8.328 17.355-18.601zm0 0" fill="#2c2f38"/><path d="M213.254 163.328c-4.48-1.703-9.492.547-11.195 5.027s.546 9.493 5.027 11.196a8.678 8.678 0 006.168-16.223zm0 0" fill="#fff"/><path d="M274.508 152.637a86.368 86.368 0 0125.687-5.207 61.738 61.738 0 0134.016 7.254c-1.188-15.188-36.395-18.188-53.606-14.286a8.212 8.212 0 00-6.332 4.485 8.217 8.217 0 00.235 7.754zm38.015 26.836c0-10.278-7.77-18.606-17.355-18.606-9.586 0-17.356 8.328-17.356 18.606 0 10.273 7.77 18.601 17.356 18.601 9.586 0 17.355-8.328 17.355-18.601zm0 0" fill="#2c2f38"/><path d="M301.5 168.355a8.678 8.678 0 10-16.223 6.17 8.678 8.678 0 0016.223-6.17zm0 0" fill="#fff"/></svg>