<svg height="512pt" viewBox="0 0 512 512" width="512pt" xmlns="http://www.w3.org/2000/svg"><path d="M185.379 291.309H326.62v79.449H185.38zm0 0" fill="#f29c1f"/><path d="M512 504.145V512H0v-7.855a138.922 138.922 0 014.063-33.547l8.207-33.278c9.523-34.715 41.43-58.511 77.418-57.734h332.625c35.988-.777 67.894 23.02 77.417 57.734l8.207 33.278A138.922 138.922 0 01512 504.145zm0 0" fill="#e64c3c"/><path d="M441.379 512H70.62l27.367-132.414 2.559-12.36a20.785 20.785 0 0121.539-14.12h54.465a203.004 203.004 0 0155.172 26.48A76.113 76.113 0 01256 406.07a76.113 76.113 0 0124.277-26.484 203.004 203.004 0 0155.172-26.48h54.465a20.899 20.899 0 0121.629 14.12l2.559 12.36zm0 0" fill="#c03a2b"/><path d="M335.45 353.105S273.655 370.758 256 406.07c-17.656-35.312-79.45-52.965-79.45-52.965zm0 0" fill="#f0c419"/><path d="M402.273 117.582C463.45 41.93 379.586 0 379.586 0c5.207 36.191-7.856 54.203-19.508 62.941H151.922C140.27 54.203 127.207 36.191 132.414 0c0 0-83.863 41.93-22.687 117.582zm0 0" fill="#2c2f38"/><path d="M124.203 255.117c3.895 30.809 30.121 53.899 61.176 53.848H326.62c31.055.05 57.281-23.04 61.176-53.848L353.105 70.621H141.242zm0 0" fill="#f0c419"/><path d="M256 35.309C467.863 35.309 406.07 256 406.07 256s-61.793 0-52.965-17.656c8.825-17.653 26.48-114.758-26.484-114.758S256 150.07 256 150.07s-17.656-26.484-70.621-26.484-35.309 97.105-26.48 114.758C167.722 256 105.928 256 105.928 256S44.138 35.309 256 35.309zm0 0" fill="#e64c3c"/><path d="M264.828 441.379V512h-17.656v-70.621a8.829 8.829 0 0117.656 0zm0 0" fill="#bdc3c7"/><path d="M185.379 406.07a8.8 8.8 0 01-6.156-2.5 30.654 30.654 0 00-20.325-6.328c-4.878 0-8.828-3.953-8.828-8.828s3.95-8.828 8.828-8.828A46.84 46.84 0 01191.621 391a8.836 8.836 0 011.914 9.621 8.838 8.838 0 01-8.156 5.45zm141.277-.078a8.81 8.81 0 01-8.14-5.402 8.806 8.806 0 011.863-9.59 46.844 46.844 0 0132.726-11.414c4.875 0 8.825 3.953 8.825 8.828s-3.95 8.828-8.825 8.828a30.563 30.563 0 00-20.347 6.344 8.937 8.937 0 01-6.102 2.406zm-25.414-163.785c-4.867 15.023-27.77 22.406-40.172 24.574-12.425 2.18-35.441 4.203-45.12-8.273 14.464.87 28.98.101 43.273-2.29a201.154 201.154 0 0042.02-14.011zm-70.027-72.586a87.747 87.747 0 00-24.664-10.133 62.81 62.81 0 00-35.38.711c4.106-14.941 39.852-11.18 56.294-3.972a8.35 8.35 0 015.469 5.691 8.344 8.344 0 01-1.72 7.703zm-1.699 17.359c0-10.453-7.903-18.925-17.653-18.925s-17.656 8.472-17.656 18.925c0 10.45 7.906 18.922 17.656 18.922s17.653-8.472 17.653-18.922zm0 0" fill="#2c2f38"/><path d="M216.813 170.559a8.833 8.833 0 00-11.391 5.113 8.827 8.827 0 005.113 11.39 8.833 8.833 0 0011.39-5.113 8.833 8.833 0 00-5.113-11.39zm0 0" fill="#fff"/><path d="M279.84 171.473a49.234 49.234 0 0124.86-17.32 35.398 35.398 0 0136.304 11.527c-.137-.133.137-2.95.086-3.387a11.927 11.927 0 00-.918-3.316 16.754 16.754 0 00-4.469-5.84 35.932 35.932 0 00-16.39-7.496 44.904 44.904 0 00-24.083 1.191 37.029 37.029 0 00-12.664 7.465c-3.242 2.965-8.043 8.43-5.957 13.406a28.568 28.568 0 003.23 3.77zm0 0" fill="#2c2f38"/><path d="M317.793 186.98c0-10.453-7.902-18.925-17.656-18.925-9.75 0-17.653 8.472-17.653 18.925 0 10.45 7.903 18.922 17.653 18.922 9.754 0 17.656-8.472 17.656-18.922zm0 0" fill="#2c2f38"/><path d="M306.578 175.672a8.827 8.827 0 00-11.39-5.113 8.833 8.833 0 00-5.114 11.39 8.833 8.833 0 0011.39 5.113c4.56-1.734 6.849-6.835 5.114-11.39zm0 0" fill="#fff"/></svg>