<svg height="512pt" viewBox="0 0 512 512" width="512pt" xmlns="http://www.w3.org/2000/svg"><path d="M185.379 294.18H326.62v73.71H185.38zm0 0" fill="#f29c1f"/><path d="M414.898 512H512v-7.855a138.922 138.922 0 00-4.063-33.547l-8.207-33.278c-9.523-34.715-41.43-58.511-77.418-57.734H89.688c-35.988-.777-67.894 23.02-77.417 57.734l-8.207 33.278A138.922 138.922 0 000 504.145V512zm0 0" fill="#24ae5f"/><path d="M441.379 512H70.62l29.906-144.746c3.063-9.14 11.989-14.992 21.59-14.149h267.82a20.844 20.844 0 0121.59 14.149zm0 0" fill="#4fba6f"/><path d="M397.242 512a400.39 400.39 0 01-26.484-70.621v-88.274h-35.309v63.38l-17.656 24.894H194.207l-17.656-24.895v-63.379h-35.309v88.274A400.39 400.39 0 01114.758 512zm0 0" fill="#3b97d3"/><path d="M441.379 176.55s-8.828 17.657-52.965 26.485H123.586c-44.137-8.828-52.965-26.484-52.965-26.484S123.586 114.758 256 114.758s185.379 61.793 185.379 61.793zm0 0" fill="#805333"/><path d="M388.414 119.438v127.734a61.747 61.747 0 01-61.793 61.793H185.38a61.747 61.747 0 01-61.793-61.793V119.438" fill="#f0c419"/><path d="M167.723 220.691a8.822 8.822 0 01-8.825 8.825 8.823 8.823 0 01-8.828-8.825 8.824 8.824 0 018.828-8.828 8.823 8.823 0 018.825 8.828zm0 26.481a8.827 8.827 0 11-17.653 0 8.827 8.827 0 1117.653 0zm26.484 0a8.829 8.829 0 11-17.658-.002 8.829 8.829 0 0117.658.002zm0 26.484a8.829 8.829 0 11-17.658-.001 8.829 8.829 0 0117.658.001zm26.484 0a8.829 8.829 0 11-17.657-.001 8.829 8.829 0 0117.657.001zm141.239-52.965a8.822 8.822 0 01-8.825 8.825 8.823 8.823 0 01-8.828-8.825 8.824 8.824 0 018.828-8.828 8.823 8.823 0 018.825 8.828zm0 26.481a8.827 8.827 0 11-17.653 0 8.827 8.827 0 1117.653 0zm-26.48 0a8.829 8.829 0 11-17.659-.002 8.829 8.829 0 0117.658.002zm0 26.484a8.829 8.829 0 11-17.659-.001 8.829 8.829 0 0117.658.001zm-26.485 0a8.829 8.829 0 11-17.658-.001 8.829 8.829 0 0117.658.001zm0 0" fill="#805333"/><path d="M194.207 441.379c0 14.625-11.855 26.484-26.484 26.484-14.625 0-26.48-11.86-26.48-26.484s11.855-26.48 26.48-26.48c14.629 0 26.484 11.855 26.484 26.48zm176.551 0c0 14.625-11.856 26.484-26.48 26.484-14.63 0-26.485-11.86-26.485-26.484s11.855-26.48 26.484-26.48c14.625 0 26.48 11.855 26.48 26.48zm0 0" fill="#fff"/><path d="M388.414 106.813l-10.328-62.485C373.859 18.754 351.746 0 325.828 0H186.176c-25.922 0-48.035 18.754-52.262 44.328l-10.328 62.484zm0 0" fill="#f18d46"/><path d="M441.379 176.55S388.414 123.587 256 123.587 70.621 176.55 70.621 176.55 97.105 70.62 256 70.62c158.898 0 185.379 105.93 185.379 105.93zm0 0" fill="#cb8252"/><path d="M297.734 256c-7.132 13.957-29.398 15.934-41.558 15.934-12.188 0-34.422-1.977-41.555-15.934a179.535 179.535 0 0041.555 5.207A179.357 179.357 0 00297.734 256zm-64.855-91.906a88.045 88.045 0 00-26.129-5.297 62.842 62.842 0 00-34.605 7.379c1.207-15.446 37.023-18.5 54.53-14.528a8.351 8.351 0 016.442 4.559 8.35 8.35 0 01-.238 7.887zm-3.363 27.301c0-10.454-7.903-18.926-17.653-18.926s-17.656 8.472-17.656 18.926c0 10.449 7.906 18.921 17.656 18.921s17.653-8.472 17.653-18.921zm0 0" fill="#2c2f38"/><path d="M216.813 174.973a8.827 8.827 0 10-6.278 16.5 8.828 8.828 0 0011.39-5.11 8.833 8.833 0 00-5.113-11.39zm0 0" fill="#fff"/><path d="M279.121 164.094a88.07 88.07 0 0126.129-5.297 62.842 62.842 0 0134.605 7.379c-1.207-15.446-37.023-18.5-54.53-14.528a8.357 8.357 0 00-6.442 4.559 8.35 8.35 0 00.238 7.887zm38.672 27.301c0-10.454-7.902-18.926-17.656-18.926-9.75 0-17.653 8.472-17.653 18.926 0 10.449 7.903 18.921 17.653 18.921 9.754 0 17.656-8.472 17.656-18.921zm0 0" fill="#2c2f38"/><path d="M306.578 180.086a8.827 8.827 0 00-11.39-5.113 8.833 8.833 0 00-5.114 11.39c1.735 4.555 6.836 6.844 11.39 5.114 4.56-1.735 6.849-6.836 5.114-11.391zm0 0" fill="#fff"/></svg>