<svg height="512pt" viewBox="-4 0 512 512.165" width="512pt" xmlns="http://www.w3.org/2000/svg"><path d="M182.32 286.371h138.848v78.102H182.32zm0 0" fill="#f29c1f"/><path d="M380.957 34.191c.629 3.028.95 6.11.957 9.2v95.457h-260.34V43.39c.008-23.96 19.43-43.382 43.39-43.39h130.169zm0 0" fill="#e64c3c"/><path d="M121.574 197.477s-69.422-17.36-69.422-69.426c0-52.067 52.067-43.39 95.457-34.711a650.378 650.378 0 00104.133 8.676A650.389 650.389 0 00355.88 93.34c43.39-8.68 95.457-17.356 95.457 34.71 0 52.067-69.422 69.427-69.422 69.427zM486.309 416.11a66.925 66.925 0 015.035 13.796l8.07 32.715a136.766 136.766 0 013.992 32.977v7.722H.082v-7.722a136.571 136.571 0 013.992-32.977l8.07-32.715a66.925 66.925 0 015.036-13.797zm0 0" fill="#c03a2b"/><path d="M494.727 373.152a147.763 147.763 0 01-11.715 52.067 189.964 189.964 0 01-7.637 17.36 263.75 263.75 0 01-34.02 52.066 294.522 294.522 0 01-7.375 8.675H69.508a300.884 300.884 0 01-7.38-8.675 263.907 263.907 0 01-34.015-52.067 189.964 189.964 0 01-7.636-17.36 147.763 147.763 0 01-11.715-52.066 97.422 97.422 0 0126.031-13.105c4.95-1.735 10.59-3.555 17.012-5.203 5.379-1.305 11.28-2.606 17.703-3.735 5.379-.867 11.105-1.734 17.27-2.343 5.464-.52 11.28-1.04 17.44-1.301 5.032-.258 10.329-.348 15.88-.348h263.289c5.554 0 10.847.09 15.883.348 6.16.262 11.976.781 17.44 1.3 6.165.61 11.892 1.477 17.27 2.344 6.422 1.13 12.325 2.43 17.704 3.735 6.421 1.648 12.062 3.469 17.007 5.203a97.387 97.387 0 0126.036 13.105zm0 0" fill="#24ae5f"/><path d="M78.184 503.32l43.39-69.422 43.39 69.422zm86.781 0l43.39-69.422 43.387 69.422zm86.777 0l43.39-69.422 43.391 69.422zm86.781 0l43.391-69.422 43.39 69.422zm0 0" fill="#e64c3c"/><path d="M425.305 512H77.879l-8.371-8.68-7.38-8.675h379.227a294.522 294.522 0 01-7.375 8.675zm57.707-86.781a189.964 189.964 0 01-7.637 17.36H28.113a189.964 189.964 0 01-7.636-17.36zm0 0" fill="#f0c419"/><path d="M173.64 503.32a8.483 8.483 0 01-1.038 4.168l-.262.434a3.75 3.75 0 01-.52.695 7.35 7.35 0 01-2.43 2.168 5.558 5.558 0 01-2.081.867 8.052 8.052 0 01-4.688 0 7.108 7.108 0 01-2.082-.867c-.086 0-.086-.086-.176-.086a8.735 8.735 0 01-2.254-2.082 3.77 3.77 0 01-.523-.695c-.086-.176-.172-.262-.258-.434l-2.605-4.168-5.38-8.675h-.085L121.574 450.3l-27.683 44.344-5.465 8.675-2.864 4.602A8.698 8.698 0 0178.184 512l-7.985-8.68h-.691c-.016-.203.015-.41.086-.605a7.656 7.656 0 011.215-3.992l2.515-4.078 32.543-52.067 8.332-13.277a9.146 9.146 0 017.375-3.735 9.146 9.146 0 017.375 3.735l8.332 13.277 27.684 44.344 4.86 7.723.26.52 2.255 3.558a9.004 9.004 0 011.3 4.597zm0 0" fill="#f0c419"/><path d="M251.754 512a8.674 8.674 0 01-7.367-4.078l-36.032-57.652-36.035 57.652a8.676 8.676 0 01-7.699 4.238 8.676 8.676 0 01-7.012-13.437l43.387-69.422a9.012 9.012 0 0114.715 0l43.39 69.422a8.68 8.68 0 01.239 8.804 8.676 8.676 0 01-7.586 4.473zm0 0" fill="#f0c419"/><path d="M338.531 512a8.672 8.672 0 01-7.363-4.078l-36.035-57.652-36.031 57.652a8.678 8.678 0 01-7.704 4.238 8.676 8.676 0 01-7.453-4.656 8.69 8.69 0 01.442-8.781l43.39-69.422a9.005 9.005 0 017.356-3.809 9 9 0 017.355 3.809l43.39 69.422A8.67 8.67 0 01338.532 512zm0 0" fill="#f0c419"/><path d="M425.305 503.32c0 2.953 2.601-1.648 0 0-1.39.871 1.558 8.68 0 8.68a8.805 8.805 0 01-7.38-4.078l-2.863-4.602-5.464-8.675-27.684-44.344-27.684 44.344-5.468 8.675-2.602 4.168-.262.434a3.75 3.75 0 01-.52.695 7.35 7.35 0 01-2.429 2.168 5.558 5.558 0 01-2.082.867 8.052 8.052 0 01-4.687 0 7.108 7.108 0 01-2.082-.867c-.086 0-.086-.086-.172-.086a8.689 8.689 0 01-2.258-2.082 3.75 3.75 0 01-.52-.695c-.09-.176-.175-.262-.261-.434a8.759 8.759 0 01-1.043-4.168 9.046 9.046 0 011.304-4.597l2.254-3.559.262-.52 4.86-7.722 27.683-44.344 8.328-13.277a9.159 9.159 0 017.38-3.735 9.157 9.157 0 017.374 3.735l8.332 13.277 32.543 52.067 2.516 4.078c.867 1.476-7.375 3.039-7.375 4.597zm-43.391-373.152v112.816a60.701 60.701 0 01-17.781 42.965 60.701 60.701 0 01-42.965 17.781H182.32a60.71 60.71 0 01-42.968-17.78 60.698 60.698 0 01-17.778-42.966V130.168l56.926 7.55c.348.087.61.087.957.177a412.337 412.337 0 0072.285 9.632 412.332 412.332 0 0072.29-9.632c.347-.09.609-.09.952-.176zm0 0" fill="#f0c419"/><path d="M164.965 0h86.777v26.035c0 19.168-15.539 34.711-34.71 34.711h-17.356c-19.172 0-34.711-15.543-34.711-34.71zm215.992 34.105v.086c-3.766 15.586-17.719 26.563-33.754 26.555h-17.36a34.69 34.69 0 01-24.546-10.164 34.724 34.724 0 01-10.164-24.547V0h43.39c20.395.004 38.047 14.188 42.434 34.105zm0 0" fill="#c03a2b"/><path d="M323.355 260.332a42.806 42.806 0 01-35.44-21.215 19.864 19.864 0 00-19.907-10.305 30.863 30.863 0 00-11.45 4.036 8.688 8.688 0 01-9.628 0 21.524 21.524 0 00-31.356 6.27c-13.687 20.527-32.66 23.53-44.797 19.874a18.07 18.07 0 01-14.492-16.008 8.677 8.677 0 0117.203-1.648 12.972 12.972 0 007.813 1.61 26.298 26.298 0 0019.828-13.454 37.133 37.133 0 0136.5-17.898 47.31 47.31 0 0114.113 4.168 47.252 47.252 0 0114.11-4.168 37.072 37.072 0 0136.5 17.898 26.298 26.298 0 0019.828 13.453 13.03 13.03 0 007.812-1.61 8.68 8.68 0 019.36-7.058 8.683 8.683 0 017.851 8.707 18.075 18.075 0 01-14.492 16.008 32.58 32.58 0 01-9.356 1.34zm0 0" fill="#2c2f38"/><path d="M191 347.117h121.488c0 23.965-19.425 43.39-43.386 43.39h-34.715c-23.961 0-43.387-19.425-43.387-43.39zm0 0" fill="#f0c419"/><path d="M156.285 347.117v34.715c0 4.793-3.883 8.676-8.676 8.676s-8.68-3.883-8.68-8.676v-34.715zm-34.711 0v34.715c0 4.793-3.886 8.676-8.68 8.676a8.676 8.676 0 01-8.675-8.676v-34.367c5.031-.258 10.328-.348 15.879-.348zm-34.711 2.692v32.023c0 4.793-3.886 8.676-8.68 8.676a8.674 8.674 0 01-8.675-8.676v-30.723c5.379-.867 11.105-1.734 17.27-2.343.07.343.097.695.085 1.043zm-34.711 7.375v24.648c0 4.793-3.886 8.676-8.68 8.676-4.792 0-8.679-3.883-8.679-8.676v-21.785c4.95-1.735 10.59-3.555 17.012-5.203.246.754.363 1.547.347 2.34zm416.539 2.863v21.785c0 4.793-3.882 8.676-8.675 8.676s-8.68-3.883-8.68-8.676v-24.648a6.998 6.998 0 01.348-2.34c6.421 1.648 12.062 3.469 17.007 5.203zm-34.711-8.937v30.722a8.674 8.674 0 01-8.675 8.676c-4.793 0-8.68-3.883-8.68-8.676v-32.023c-.016-.348.016-.7.086-1.043 6.164.609 11.89 1.476 17.27 2.343zm-34.71-3.645v34.367c0 4.793-3.887 8.676-8.68 8.676a8.674 8.674 0 01-8.676-8.676v-34.715h1.473c5.554 0 10.847.09 15.883.348zm-34.711-.348v34.715c0 4.793-3.887 8.676-8.68 8.676a8.674 8.674 0 01-8.676-8.676v-34.715zm0 0" fill="#e64c3c"/><path d="M292.77 251.66c-7.012 13.723-28.899 15.664-40.852 15.664-11.98 0-33.84-1.941-40.852-15.664a176.708 176.708 0 0040.852 5.121 176.285 176.285 0 0040.852-5.12zm-63.754-90.347a86.516 86.516 0 00-25.688-5.208 61.786 61.786 0 00-34.02 7.254c1.188-15.183 36.399-18.187 53.61-14.28a8.2 8.2 0 016.328 4.483 8.198 8.198 0 01-.23 7.75zm-3.306 26.835c0-10.273-7.773-18.601-17.355-18.601-9.585 0-17.355 8.328-17.355 18.601 0 10.274 7.77 18.602 17.355 18.602 9.583 0 17.356-8.328 17.356-18.602zm0 0" fill="#2c2f38"/><path d="M213.219 172.008c-4.477-1.703-9.492.547-11.196 5.023a8.683 8.683 0 005.028 11.2c4.48 1.703 9.492-.547 11.195-5.028s-.547-9.492-5.027-11.195zm0 0" fill="#fff"/><path d="M274.473 161.313a86.49 86.49 0 0125.687-5.208 61.765 61.765 0 0134.016 7.254c-1.184-15.183-36.395-18.187-53.606-14.28a8.212 8.212 0 00-6.332 4.483 8.21 8.21 0 00.235 7.75zm38.015 26.835c0-10.273-7.77-18.601-17.355-18.601-9.586 0-17.356 8.328-17.356 18.601 0 10.274 7.77 18.602 17.356 18.602 9.586 0 17.355-8.328 17.355-18.602zm0 0" fill="#2c2f38"/><path d="M301.465 177.035a8.678 8.678 0 10-16.224 6.17 8.678 8.678 0 0016.224-6.17zm0 0" fill="#fff"/><path d="M425.129 129.734a8.816 8.816 0 01-10.238 6.856 120.348 120.348 0 00-32.977-.867c-17.098 1.39-36.016 5.035-54.672 8.504a427.428 427.428 0 01-75.5 9.894c-4.793 0-8.676-3.887-8.676-8.68a8.674 8.674 0 018.676-8.675 411.595 411.595 0 0072.29-9.633c.347-.086.609-.086.952-.176 34.625-6.508 67.344-12.582 93.375-7.375a8.565 8.565 0 016.77 10.152zm0 0" fill="#e64c3c"/><path d="M260.422 145.441a8.706 8.706 0 01-8.68 8.68 427.384 427.384 0 01-75.496-9.894c-18.66-3.47-37.578-7.114-54.672-8.504a120.348 120.348 0 00-32.976.867 8.693 8.693 0 01-6.54-1.305 8.69 8.69 0 01-3.699-5.55 8.567 8.567 0 016.766-10.152c26.035-5.208 58.75.866 93.375 7.374.348.09.61.09.957.176a411.6 411.6 0 0072.285 9.633c2.305-.008 4.52.902 6.149 2.53s2.539 3.845 2.53 6.145zm0 0" fill="#e64c3c"/></svg>