<svg xmlns="http://www.w3.org/2000/svg"><defs><font id="Bitter" horiz-adv-x="566"><font-face font-family="Bitter" panose-1="2 0 0 0 0 0 0 0 0 0" ascent="935" descent="-265" alphabetic="0"/><glyph glyph-name="space" horiz-adv-x="230"/><glyph unicode="!" glyph-name="exclam" horiz-adv-x="320" d="M220 750l-15-500-85-5-15 505h115zM159-10q-29 0-46 18T95 59q0 33 18 52t48 19q29 0 46-18t18-52q0-32-18-51t-48-19z"/><glyph unicode="&quot;" glyph-name="quotedbl" horiz-adv-x="388" d="M332 770l-20-250h-75v250h95zm-172 0l-20-250H65v250h95z"/><glyph unicode="#" glyph-name="numbersign" horiz-adv-x="690" d="M90 380v65h119l21 155h80l-21-155h145l21 155h80l-21-155h111v-65H505l-19-145h114v-65H477L455 0h-80l22 170H252L230 0h-80l22 170H65v65h116l19 145H90zm190 0l-19-145h145l19 145H280z"/><glyph unicode="$" glyph-name="dollar" horiz-adv-x="545" d="M315-140h-75v130q-21 0-43 2t-43 7-38 8-28 9l-23 9v160h70l20-92q37-20 94-20 30 0 55 6t45 17 31 29 11 40q0 35-24 55t-59 35-77 28-77 35-60 54-24 88q0 76 47 119t123 55v116h75V637q75-6 138-29l22-8-5-150h-60l-25 90q-46 20-99 20t-84-25-32-60q0-35 23-55t60-36 77-30 77-34 59-53 24-82q0-79-48-127T315-4v-136z"/><glyph unicode="%" glyph-name="percent" horiz-adv-x="815" d="M155 0l405 700h90L245 0h-90zm46 360q-72 0-114 42T45 529q0 42 12 76t34 57 51 35 66 13q72 0 114-43t43-129q0-85-45-131t-119-47zm4 285q-85 0-85-110t85-110q85 0 85 110t-85 110zM596-10q-72 0-114 42t-42 127q0 42 12 76t34 57 51 35 66 13q72 0 114-43t43-129q0-85-45-131T596-10zm4 285q-85 0-85-110t85-110q85 0 85 110t-85 110z"/><glyph unicode="&amp;" glyph-name="ampersand" horiz-adv-x="670" d="M550 330V210q0-105-65-162T302-10q-117 0-174 54T70 195q0 34 13 62t32 51 40 39 36 25l14 8q-17 4-37 15t-39 30-30 44-12 61q0 91 61 135t172 45q19 0 41-3t45-7 43-10 33-10l28-10-5-140h-64l-21 80q-41 15-105 15-125 0-125-103 0-24 10-44t28-36 41-23 51-9h310v-60l-80-20zM450 205v125H315q-28 0-53-10t-44-27-31-42-12-55q0-60 37-90t102-31q66 0 101 33t35 97z"/><glyph unicode="'" glyph-name="quotesingle" horiz-adv-x="215" d="M160 770l-20-250H65v250h95z"/><glyph unicode="(" glyph-name="parenleft" horiz-adv-x="330" d="M240 770h90q-72-111-114-238t-42-254q0-60 10-128t31-135 49-131 65-114h-89q-44 61-75 120T113 10 84 136 74 276q0 75 9 137t30 121 51 115 76 121z"/><glyph unicode=")" glyph-name="parenright" horiz-adv-x="330" d="M-1 770h90q44-63 75-120t52-116 29-121 10-137q0-73-9-138T216 11t-52-120-75-121H0q36 51 64 114t49 130 31 136 11 128q0 126-42 253T-1 770z"/><glyph unicode="*" glyph-name="asterisk" horiz-adv-x="403" d="M196 586l-26 23-13 124 73 2-7-127 115 49 25-70-125-29 84-99-58-44-69 113 9 34 34-4-29 19 14 31-27-22zm-26 23l13-32-30-17 35 2 7-34-65-113-60 42 83 103-128 25 24 70 121-46z"/><glyph unicode="+" glyph-name="plus" horiz-adv-x="620" d="M50 225v80h218v225h85V305h217v-80H353V0h-85v225H50z"/><glyph unicode="," glyph-name="comma" horiz-adv-x="265" d="M135 130q65 0 65-74 0-88-115-210l-45 38Q93-45 93-10q0 5-3 12t-8 19-9 23-3 24q0 24 18 43t47 19z"/><glyph unicode="-" glyph-name="hyphen" horiz-adv-x="375" d="M60 230v85h260v-85H60z"/><glyph unicode="." glyph-name="period" horiz-adv-x="260" d="M129-10q-29 0-46 18T65 59q0 33 18 52t48 19q29 0 46-18t18-52q0-32-18-51t-48-19z"/><glyph unicode="/" glyph-name="slash" horiz-adv-x="506" d="M40 0l331 700h105L145 0H40z"/><glyph unicode="0" glyph-name="zero" horiz-adv-x="645" d="M335 710q69 0 116-21t77-65 43-110 14-154q0-370-260-370Q70-10 70 350t265 360zM180 350q0-275 150-275 78 0 111 68t34 211q0 140-32 205t-114 66q-80 0-114-66t-35-209z"/><glyph unicode="1" glyph-name="one" horiz-adv-x="512" d="M487 85V0H78v85h154v500L62 475l-42 72 233 153h84V85h150z"/><glyph unicode="2" glyph-name="two" horiz-adv-x="570" d="M45 0v85q101 90 167 153t106 110 56 84 16 78q0 54-36 84t-99 31q-49 0-91-15l-14-5-10-95H60l-5 160q108 40 216 40 52 0 94-10t73-33 46-58 16-85q0-50-16-96t-54-96-98-110T185 85h335V0H45z"/><glyph unicode="3" glyph-name="three" horiz-adv-x="550" d="M140 405h80q69 0 109 30t41 83q0 52-35 79t-95 28q-54 0-96-15l-14-5-10-90H40l-5 155q108 40 213 40 104 0 165-42t62-133q0-134-130-167 67-14 106-58t39-102q0-58-23-99t-60-68-85-38-97-13q-29 0-57 3t-52 9-43 13-31 13L20 40l30 80q85-45 180-45 69 0 109 33t41 93q0 60-44 92t-121 32h-75v80z"/><glyph unicode="4" glyph-name="four" horiz-adv-x="610" d="M20 240l320 475 115-15V250h115v-85H455V0H352v165H30l-10 75zm332 340L130 250h222v330z"/><glyph unicode="5" glyph-name="five" horiz-adv-x="530" d="M452 700l-3-85H167l-9-190h32q67 0 121-15t91-43 58-66 20-86q0-53-20-94t-54-72-79-44-97-15q-29 0-57 3t-54 9-45 13-30 13L20 40l30 80q79-45 175-45 30 0 56 9t46 26 31 43 12 58q0 66-54 100t-151 34H60l13 355h379z"/><glyph unicode="6" glyph-name="six" horiz-adv-x="600" d="M425 710q46 0 75-10l-5-80q-15 2-34 3t-43 2q-48 0-84-13t-63-34-45-46-29-52-17-48-8-38l-2-14q11 9 31 17t44 16 49 12 46 5q45 0 84-14t68-42 46-67 17-90q0-50-19-91t-51-72-77-47-93-17q-64 0-112 22t-79 62-48 97-16 124q0 93 23 169t70 131 114 85 158 30zM165 300v-30q0-99 42-147t106-48q63 0 100 36t37 99q0 135-140 135-18 0-37-3t-35-8-31-12-23-11l-19-11z"/><glyph unicode="7" glyph-name="seven" horiz-adv-x="502" d="M5 700h480v-75L218 0H103l265 610H100l-20-95H5v185z"/><glyph unicode="8" glyph-name="eight" horiz-adv-x="590" d="M530 530q0-34-12-60t-32-46-41-33-44-20q65-27 102-66t37-105q0-46-18-84t-51-67-80-43-104-16q-57 0-101 14t-75 41-45 63-16 82q0 38 15 68t38 52 47 36 38 21q-57 28-87 64t-31 94q0 91 64 138t173 47q109 0 166-49t57-131zM430 195q0 36-26 66t-81 51l-48 19q-115-52-115-136 0-57 35-88t100-31q64 0 99 31t36 88zM318 400q107 44 107 125 0 46-32 73t-93 27q-60 0-92-27t-33-73q0-25 11-43t30-33 45-26 57-23z"/><glyph unicode="9" glyph-name="nine" horiz-adv-x="600" d="M180-10q-46 0-80 10l5 80q16-2 33-4t38-2q53 0 92 13t67 35 45 48 28 53 15 50 6 38l1 14q-11-9-31-17t-44-16-49-12-46-5q-45 0-84 13t-69 40-45 66-17 90q0 51 19 92t52 72 76 46 93 16q63 0 110-22t80-62 48-96 17-125q0-92-23-168t-68-132-112-85-157-30zm255 415v30q0 96-42 143t-106 47q-63 0-100-36t-37-99q0-130 140-130 37-1 72 11t54 23l19 11z"/><glyph unicode=":" glyph-name="colon" horiz-adv-x="280" d="M139-10q-29 0-46 18T75 59q0 33 18 52t48 19q29 0 46-18t18-52q0-32-18-51t-48-19zM92 333q-17 20-17 52 0 35 19 52t47 18q27 0 45-18t19-52q0-32-18-51t-48-19q-29 0-47 18z"/><glyph unicode=";" glyph-name="semicolon" horiz-adv-x="280" d="M90-154Q205-32 205 56q0 74-65 74-32 0-48-19T75 62q0-11 4-22t8-22 8-18 3-14q0-6-3-16T85-53 72-77 58-98l-13-18 45-38zm1 487q-17 20-17 52 0 34 20 52t46 18q27 0 45-18t19-52q0-33-19-51t-48-19q-28 0-46 18z"/><glyph unicode="&lt;" glyph-name="less" horiz-adv-x="610" d="M160 265L560 80V-5L50 230v70l510 230v-85L160 265z"/><glyph unicode="=" glyph-name="equal" horiz-adv-x="600" d="M55 135v80h490v-80H55zm0 195v80h490v-80H55z"/><glyph unicode="&gt;" glyph-name="greater" horiz-adv-x="610" d="M50 80l400 185L50 445v85l510-230v-70L50-5v85z"/><glyph unicode="?" glyph-name="question" horiz-adv-x="481" d="M195-10q-29 0-46 18t-18 51q0 33 18 52t48 19q29 0 46-18t18-52q0-32-18-51t-48-19zm38 244l-90-6q-9 67-9 95 0 20 10 38t27 37 37 35 40 34q63 54 63 113 0 80-105 80-25 1-47-2t-43-8l-15-3-16 75q67 23 126 23 44 0 81-8t66-27 43-48 15-72q0-25-8-49t-21-47-29-41-34-33q-46-38-70-68t-23-56l2-62z"/><glyph unicode="@" glyph-name="at" horiz-adv-x="820" d="M555 30q-70-40-165-40-159 0-242 91T65 341q0 84 25 152t72 117 112 74 144 26q79 0 142-24t108-70 68-111 24-145q0-96-45-150t-124-55q-37 0-67 16t-42 50q-9-12-23-23t-31-19-33-14-31-6q-54 0-82 28t-29 84q0 111 162 111h54v48q0 55-68 55-34 0-85-15l-17-5-18 57q74 31 140 31 128 0 128-115V259q0-21 12-32t35-12q39 0 61 37t23 103q0 64-18 115t-53 88-84 57-112 20q-61 0-110-19t-85-57-54-90-19-120q0-135 66-209t184-75q57 0 105 19l15 6 40-60zm-86 298h-48q-49 0-69-13t-21-39q0-51 52-51 20 0 42 10t33 23l11 12v58z"/><glyph unicode="A" glyph-name="A" horiz-adv-x="725" d="M5 0v60l82 19 228 616 100 5L637 79l83-19V0H430v60l93 19-38 111H225L186 79l94-19V0H5zm352 571L252 270h206L357 571z"/><glyph unicode="B" glyph-name="B" horiz-adv-x="630" d="M40 0v60l85 20v540l-85 20v55l185 5h115q98 0 156-44t59-131q0-129-130-162 78-18 116-60t39-103Q580 0 325 0H40zm185 325V80h105q145 0 145 115 0 72-43 101t-132 29h-75zm0 295V400h75q70 0 110 28t40 83q0 55-32 82t-83 27H225z"/><glyph unicode="C" glyph-name="C" horiz-adv-x="645" d="M520 491l-27 114q-54 20-128 20-102 0-156-74t-54-207q0-134 58-199t157-65q22 0 47 5t50 14 44 20 33 21l26 20 40-65q-22-22-50-41t-61-33-68-23-71-8q-153 0-236 88T40 337q0 85 23 154t68 117 105 75 139 27q23 0 50-3t54-10 50-12 39-13l32-12-5-169h-75z"/><glyph unicode="D" glyph-name="D" horiz-adv-x="730" d="M250 80h115q99 0 154 68t56 205q0 138-54 202t-151 65H250V80zM60 0v60l85 20v540l-85 20v55l190 5h125q74 0 132-22t99-66 62-107 22-146q0-82-23-148T600 98 496 26 360 0H60z"/><glyph unicode="E" glyph-name="E" horiz-adv-x="625" d="M465 620H250V405h230v-80H250V80h230l20 100h65V0H60v60l85 20v540l-85 20v55l190 5h305V530h-65l-25 90z"/><glyph unicode="F" glyph-name="F" horiz-adv-x="570" d="M445 620H230V395h230v-80H230V80l100-20V0H40v60l85 20v540l-85 20v55l190 5h305V535h-65l-25 85z"/><glyph unicode="G" glyph-name="G" horiz-adv-x="751" d="M635 264V50q-1 0-18-9t-49-21-80-21-108-9q-153 0-236 88T60 337q0 85 23 154t68 117 105 75 139 27q23 0 50-3t54-10 50-12 39-13l32-12-5-165h-65l-30 110q-62 20-135 20-102 0-156-73t-54-209q0-135 59-201t161-67q61 0 121 19l19 6v164l-85 20v55l260 5v-60l-75-20z"/><glyph unicode="H" glyph-name="H" horiz-adv-x="795" d="M325 60V0H40v60l85 20v540l-85 20v55l285 5v-60l-95-20V400h335v220l-95 20v55l285 5v-60l-85-20V80l85-20V0H470v60l95 20v240H230V80l95-20z"/><glyph unicode="I" glyph-name="I" horiz-adv-x="355" d="M315 60V0H40v60l85 20v540l-85 20v55l275 5v-60l-85-20V80l85-20z"/><glyph unicode="J" glyph-name="J" horiz-adv-x="359" d="M44 695l275 5v-60l-85-20V45q0-91-50-143T44-150l-64 5 9 75h50q90 0 90 95v595l-85 20v55z"/><glyph unicode="K" glyph-name="K" horiz-adv-x="710" d="M325 60V0H40v60l85 20v540l-85 20v55l285 5v-60l-95-20V400h92l173 295 165 5v-60l-99-20-152-253L615 80l85-20V0H415v60l85 20-172 240h-98V80l95-20z"/><glyph unicode="L" glyph-name="L" horiz-adv-x="530" d="M225 620V80h205l20 115h70V0H35v60l85 20v540l-85 20v55l275 5v-60l-85-20z"/><glyph unicode="M" glyph-name="M" horiz-adv-x="875" d="M565 0v60l95 20v500l-30-75-155-315-80-5-155 325-25 70V80l95-20V0H40v60l85 20v540l-85 20v55l225 5 181-400 189 395 210 5v-60l-85-20V80l85-20V0H565z"/><glyph unicode="N" glyph-name="N" horiz-adv-x="790" d="M545 0L215 551V80l95-20V0H40v60l85 20v540l-85 20v55l210 5 330-559v479l-85 20v55l260 5v-60l-85-20V0H545z"/><glyph unicode="O" glyph-name="O" horiz-adv-x="755" d="M60 342q0 84 22 152t66 116 102 74 133 26q73 0 131-24t98-71 62-111 21-146q0-81-24-148T604 94 499 18 364-10q-147 0-225 91T60 342zm320 283q-205 0-205-275T370 75q100 0 155 70t55 210q0 270-200 270z"/><glyph unicode="P" glyph-name="P" horiz-adv-x="590" d="M40 0v60l85 20v540l-85 20v55l190 5h105q111 0 170-55t60-150q0-115-70-175t-200-60h-65V80l85-20V0H40zm190 620V340h65q165 0 165 140 0 62-34 101t-96 39H230z"/><glyph unicode="Q" glyph-name="Q" horiz-adv-x="755" d="M785-65l40-60q-101-60-155-60-39 0-130 55L341-8Q204 3 132 92T60 346q0 82 24 149t69 115 105 74 136 26q74 0 132-24t97-69 61-111 21-146q0-68-16-125t-45-104-72-78-95-48l108-65q67-40 105-40 29 0 79 26l16 9zM390 625q-107 0-163-68t-57-205q0-136 52-206t158-71q106 0 160 70t55 210q0 270-205 270z"/><glyph unicode="R" glyph-name="R" horiz-adv-x="650" d="M40 0v60l85 20v540l-85 20v55l190 5h110q106 0 165-48t60-132q0-147-130-195 24-21 60-90l79-159 71-16V0H495l-85 185q-35 75-60 97t-75 23h-45V80l85-20V0H40zm190 620V380h75q73 0 114 33t41 87q0 55-35 87t-90 33H230z"/><glyph unicode="S" glyph-name="S" horiz-adv-x="598" d="M150 205l20-105q18-10 49-17t61-8q30 0 58 7t49 22 33 33 13 45q0 29-16 48t-41 34-58 26-65 23q-35 15-67 30t-58 38-41 55-15 79q0 50 19 87t52 61 76 35 92 12q22 0 47-3t49-7 45-10 36-10l32-10-5-170h-65l-34 107q-28 9-55 13t-57 4q-29 0-52-7t-40-21-26-29-9-33q1-42 28-66t67-41 86-32 86-37 66-59 27-94q0-52-20-92t-55-67-83-42-103-15q-22 0-47 3t-50 7-46 10-35 11L70 30v175h80z"/><glyph unicode="T" glyph-name="T" horiz-adv-x="565" d="M435 60V0H130v60l100 20v540H100L75 520H10v180h545V520h-65l-25 100H335V80l100-20z"/><glyph unicode="U" glyph-name="U" horiz-adv-x="790" d="M665 620V285q0-147-62-221T394-10q-147 0-208 68t-61 212v350l-85 20v55l285 5v-60l-95-20V270q0-110 38-152t129-43q91 0 127 46t36 164v335l-95 20v55l285 5v-60l-85-20z"/><glyph unicode="V" glyph-name="V" horiz-adv-x="700" d="M295 0L82 620 5 640v55l280 5v-60l-91-19 157-486 167 485-93 20v55l270 5v-60l-78-20L395 0H295z"/><glyph unicode="W" glyph-name="W" horiz-adv-x="1035" d="M250 0L83 620 5 640v55l280 5v-60l-87-20 107-453 165 528 95 5 162-544 124 464-91 20v55l270 5v-60l-79-20L775 0H665L516 568l-31-113L350 0H250z"/><glyph unicode="X" glyph-name="X" horiz-adv-x="700" d="M10 0v60l65 15 210 280-185 265-75 20v55l265 5v-60l-65-20 130-190 130 190-70 20v55l265 5v-60l-90-20-180-260L605 80l85-20V0H420v60l60 15-140 205L190 80l85-20V0H10z"/><glyph unicode="Y" glyph-name="Y" horiz-adv-x="645" d="M185 0v60l85 20v179L77 621l-67 19v55l250 5v-60l-68-20 133-280 147 280-77 20v55l240 5v-60l-62-18-198-361V80l85-20V0H185z"/><glyph unicode="Z" glyph-name="Z" horiz-adv-x="615" d="M70 700h505v-70L175 80h310l20 100h65V0H40v70l400 550H160l-25-100H70v180z"/><glyph unicode="[" glyph-name="bracketleft" horiz-adv-x="345" d="M305-160v-65l-215-5V770l215-5v-65l-120-11v-838l120-11z"/><glyph unicode="\" glyph-name="backslash" horiz-adv-x="506" d="M135 700L466 0H361L30 700h105z"/><glyph unicode="]" glyph-name="bracketright" horiz-adv-x="345" d="M255-230l-215 5v65l120 11v838L40 700v65l215 5V-230z"/><glyph unicode="^" glyph-name="asciicircum" horiz-adv-x="570" d="M282 600L145 320H60l190 380h70l190-380h-87L282 600z"/><glyph unicode="_" glyph-name="underscore" horiz-adv-x="500" d="M0-150v70h500v-70H0z"/><glyph unicode="`" glyph-name="grave" horiz-adv-x="420" d="M290 635L95 760l50 75 185-145-40-55z"/><glyph unicode="a" glyph-name="a" horiz-adv-x="565" d="M75 500q108 40 198 40 88 0 135-35t47-120V80l80-20V5L380 0l-21 70q-80-80-158-80T84 29 45 140q0 155 230 155h80v80q0 90-95 90-54 0-89-11l-12-4-14-75H80l-5 125zm280-270h-70q-75 0-106-19t-32-61q0-39 18-59t54-21q17 0 34 6t34 15 30 19 21 20l17 20v80z"/><glyph unicode="b" glyph-name="b" horiz-adv-x="585" d="M180 770V482q73 58 150 58 106 0 158-69t52-196q0-62-18-114t-53-91-86-59-118-21q-51 1-91 4T102 8l-22 7v675L0 710v55l180 5zm0-690q24-10 104-10 40 0 68 15t47 41 27 63 9 80q0 90-30 140t-95 51q-50 0-80-19t-50-46V80z"/><glyph unicode="c" glyph-name="c" horiz-adv-x="510" d="M465 365h-65l-15 85q-39 10-90 10-72 0-111-46t-39-143q0-97 41-149t114-52q21 0 41 4t39 10 34 15 24 16l17 15 35-60-11-9q-12-10-33-22t-46-23-54-18-56-8q-122 0-186 72T40 261q0 62 18 113t53 88 82 57 107 21q20 0 41-3t41-7 37-9 29-11l22-10-5-135z"/><glyph unicode="d" glyph-name="d" horiz-adv-x="615" d="M505 770V80l85-20V5L420 0l-8 57q-67-67-165-67-97 0-149 69T45 252q0 131 67 209t198 79q49 0 95-16v166l-85 20v55l185 5zM405 145v295q-35 20-105 20-150 0-150-200 0-88 30-139t95-51q49 0 83 26 32 26 47 49z"/><glyph unicode="e" glyph-name="e" horiz-adv-x="530" d="M490 252l-345-2q0-82 39-131t106-49q22 0 44 4t41 10 36 13 27 15l20 13 35-52q-34-27-62-42T364 3t-84-13q-118 0-179 71T40 257q0 62 18 114t50 89 78 59 99 21q210 0 210-235l-5-53zm-341 73h240q0 61-26 99t-84 38q-57 0-91-38t-39-99z"/><glyph unicode="f" glyph-name="f" horiz-adv-x="440" d="M70 515l90 10v60q0 91 48 143t137 52q42 0 79-8t54-18l17-9V620h-70l-15 80q-25 5-68 5-82 0-82-100v-80h132l-3-75H260V80l97-25V0H75v55l85 25v370H70v65z"/><glyph unicode="g" glyph-name="g" horiz-adv-x="585" d="M270 160q-44 0-75 9l-5-94h155q98 0 149-37t51-112q0-81-66-128t-194-48Q45-250 45-105q0 63 67 107 16 10 38 18-27 4-43 19T90 73q0 33 39 96l13 21q-9 3-24 18t-26 30q-27 42-27 107 0 95 59 145t161 50q56 0 89-14l11-5 175 4v-55l-97-14q27-36 27-101 0-98-59-146t-161-49zM320 0H210q-5-2-19-12t-23-20q-23-26-23-58 0-49 38-67t117-18q150 0 150 95 0 46-32 63T320 0zm-40 470q-115 0-115-120 0-55 28-87t81-33q61 0 88 28t28 92q0 120-110 120z"/><glyph unicode="h" glyph-name="h" horiz-adv-x="650" d="M210 770V468q85 72 170 72t125-47 40-133V80l75-25V0H380v55l65 24v271q0 54-20 79t-63 26q-21 0-41-5t-38-15-32-19-23-21l-18-20V80l65-25V0H25v55l85 25v610l-85 20v55l185 5z"/><glyph unicode="i" glyph-name="i" horiz-adv-x="335" d="M170 765q65 0 65-75 0-31-22-48t-47-17q-27 0-44 18t-17 52q0 33 18 51t47 19zm55-235V80l75-25V0H40v55l85 25v370l-85 20v55l185 5z"/><glyph unicode="j" glyph-name="j" horiz-adv-x="289" d="M209 530V-45q0-91-47-143T24-240l-64 5 9 70h50q51 0 70 25t20 75v515l-85 20v55l185 5zm-60 235q65 0 65-75 0-31-22-48t-47-17q-27 0-44 18t-17 52q0 33 19 51t46 19z"/><glyph unicode="k" glyph-name="k" horiz-adv-x="585" d="M210 770V330h85l75 126-45 14v55l220 5v-60l-71-12h-1L370 305 499 80h1l75-25V0H440L297 255h-87V80l65-25V0H25v55l85 25v610l-85 20v55l185 5z"/><glyph unicode="l" glyph-name="l" horiz-adv-x="317" d="M212 770V80l100-25V0H25v55l85 25v610l-85 20v55l187 5z"/><glyph unicode="m" glyph-name="m" horiz-adv-x="980" d="M205 530l9-71q14 13 34 27t44 27 50 19 53 8q101 0 139-86 18 18 42 33t49 28 50 18 45 7q155 0 155-180V80l75-25V0H710v55l65 25v270q0 55-19 80t-62 25q-21 0-40-5t-37-15-30-19-21-21l-16-20V80l65-25V0H385v55l65 25v270q0 55-19 80t-62 25q-21 0-40-5t-37-15-30-19-21-21l-16-20V80l65-25V0H40v55l85 25v370l-85 20v55l165 5z"/><glyph unicode="n" glyph-name="n" horiz-adv-x="665" d="M205 530l9-71q10 8 28 22t42 27 54 22 62 10q81 0 120-47t40-133V80l75-25V0H395v55l65 25v270q0 54-21 79t-64 26q-21 0-41-5t-38-15-31-19-23-21l-17-20V80l65-25V0H40v55l85 25v370l-85 20v55l165 5z"/><glyph unicode="o" glyph-name="o" horiz-adv-x="570" d="M40 257q0 64 18 116t53 90 80 57 103 20q112 0 174-71t62-197q0-62-18-113t-50-89-79-59-104-21q-114 0-176 68T40 257zm250 203q-145 0-145-195T285 70q73 0 106 50t34 150q0 190-135 190z"/><glyph unicode="p" glyph-name="p" horiz-adv-x="615" d="M195 530l8-56q70 66 152 66 106 0 160-69t55-198q0-62-16-114t-51-89-84-59-119-21q-42 0-90 14v-159l105-20v-55H30v55l80 20v605l-85 20v55l170 5zm15-140V90q31-20 105-20 150 0 150 200 0 88-32 139t-98 51q-38 0-71-17t-54-53z"/><glyph unicode="q" glyph-name="q" horiz-adv-x="580" d="M305-230v55l100 20V48q-73-58-150-58Q45-10 45 250q0 65 18 118t53 92 87 59 117 21q97 0 163-15l22-5v-675l80-20v-55H305zm100 680q-29 10-106 10-39 0-67-14t-46-41-27-63-9-81q0-90 30-140t95-51q50 0 80 19t50 46v315z"/><glyph unicode="r" glyph-name="r" horiz-adv-x="465" d="M205 530l9-73q74 83 151 83 41 0 79-12l11-3-5-145h-65l-15 75q-86 0-145-78V80l100-25V0H40v55l85 25v370l-85 20v55l165 5z"/><glyph unicode="s" glyph-name="s" horiz-adv-x="471" d="M46 160h70l11-86q10-4 31-6t43-3q65 0 94 19t30 60q0 27-20 43t-52 27-67 22-68 28-51 46-21 74q0 75 50 114t133 42q35-1 71-5t75-17l25-8-3-135h-65l-16 78q-8 3-31 7t-49 5q-18 0-34-3t-28-10-20-20-8-32q0-29 20-45t52-29 67-23 68-28 51-45 21-71q0-42-18-74t-48-53-71-32-87-11q-17 0-35 1t-37 4-33 6-26 6l-23 6-1 148z"/><glyph unicode="t" glyph-name="t" horiz-adv-x="395" d="M220 671V525h145v-75H220V129q0-61 50-61 32 0 78 25l27-53q-68-50-140-50-51 0-83 33t-32 112v315H20v65l100 10v126l100 20z"/><glyph unicode="u" glyph-name="u" horiz-adv-x="650" d="M540 530V80l85-20V5L460 0l-10 70q-42-37-95-58t-90-22q-80 0-120 47t-40 132v281l-85 20v55l185 5V179q0-53 21-78t64-26q43 0 79 20t53 39l18 20v296l-85 20v55l185 5z"/><glyph unicode="v" glyph-name="v" horiz-adv-x="559" d="M230 530v-60l-70-10L279 90l120 365-69 15v55l224 5v-60l-55-10L329 0H219L55 455 5 470v55l225 5z"/><glyph unicode="w" glyph-name="w" horiz-adv-x="830" d="M230 530v-60l-75-10 85-370 131 435 95 15L590 90l80 365-70 15v55l225 5v-60l-58-10L645 0H530l-95 310-24 96-21-96L295 0H180L55 455 5 470v55l225 5z"/><glyph unicode="x" glyph-name="x" horiz-adv-x="565" d="M243 530v-60l-35-6 77-129 120 190 145 5v-60l-85-15-125-185L468 78l92-23V0H316v55l40 12-82 132L150 0H5v55l88 23 127 187L92 456l-77 14v55l228 5z"/><glyph unicode="y" glyph-name="y" horiz-adv-x="577" d="M245 530v-60l-70-10 120-350 110 345-70 15v55l237 5v-60l-65-10L365 64q-50-131-74-174-75-129-196-130l-64 5 9 70h50q49 0 85 41T249-2L70 455l-60 15v55l235 5z"/><glyph unicode="z" glyph-name="z" horiz-adv-x="505" d="M470 530v-75L177 75h204l14 80h70V0H65v75l292 380H169l-14-75H85v150h385z"/><glyph unicode="{" glyph-name="braceleft" horiz-adv-x="370" d="M340 775v-65q-71 0-97-22t-26-83V434q0-104-93-139 93-35 93-139V-55q0-60 26-82t97-23v-65h-45q-91 0-130 38T125-55v211q0 50-21 77t-74 27v70q53 0 74 27t21 77v171q0 93 39 131t131 39h45z"/><glyph unicode="|" glyph-name="bar" horiz-adv-x="280" d="M180 755v-985h-80v985h80z"/><glyph unicode="}" glyph-name="braceright" horiz-adv-x="375" d="M40 775h45q91 0 130-38t40-132V434q0-50 21-77t74-27v-70q-53 0-74-27t-21-77V-55q0-93-39-131T85-225H40v65q71 0 97 22t26 83v211q0 104 93 139-93 35-93 139v171q0 60-26 82t-97 23v65z"/><glyph unicode="~" glyph-name="asciitilde" horiz-adv-x="626" d="M106 209l-46 36q10 20 20 33t29 29 46 27 65 11q18 0 45-9t58-26 55-25 41-10q31-1 54 14t35 31l12 15 46-36q-7-14-20-32t-32-34-42-27-51-11q-28 0-56 10t-61 25-59 25-43 10q-29-1-52-14t-34-28l-10-14z"/><glyph glyph-name="uni00A0" horiz-adv-x="410"/><glyph unicode="¡" glyph-name="exclamdown" horiz-adv-x="315" d="M156 550q29 0 46-18t18-52q0-32-19-51t-48-19q-28 0-45 18t-18 51q0 33 19 52t47 19zm-56-760l15 500 85 5 15-505H100z"/><glyph unicode="¢" glyph-name="cent" horiz-adv-x="510" d="M315 700v-92q36-2 73-13t58-21l19-9-5-130h-65l-15 85q-33 10-85 10-75 0-110-38t-35-122q0-180 150-180 19 0 37 3t35 9 30 13 22 13l16 12 39-55q-14-12-34-24t-42-22-46-18-42-10V0h-75v113q-96 14-145 79T45 356q0 100 50 166t145 82v96h75z"/><glyph unicode="£" glyph-name="sterling" horiz-adv-x="625" d="M565 185V0H60v60l55 15q35 9 45 37t10 69q0 21-1 59t-6 95H60v68l98 11q-3 48-3 96 0 94 49 147t151 53q25 0 52-2t52-6 45-6 32-8l24-8V540h-65l-15 83q-30 4-60 5t-60 2q-105 0-105-100 0-32 1-60t3-55h166v-80H264q6-90 6-127 0-19-3-37t-8-33-11-28-12-18l-11-12h254l21 105h65z"/><glyph unicode="¤" glyph-name="currency" horiz-adv-x="578" d="M528 486l-76-76q29-47 29-109t-32-112l79-79-49-52-81 80q-50-33-112-33-63 0-109 30L99 58l-49 52 78 78q-27 45-27 106 0 63 31 110l-82 82 49 52 83-82q49 34 112 34 61 0 107-29l78 77 49-52zM186 298q0-58 25-90t80-33q54 0 79 32t26 91q0 122-105 122T186 298z"/><glyph unicode="¥" glyph-name="yen" horiz-adv-x="645" d="M97 290v70h124L77 621l-67 19v55l250 5v-60l-68-20 133-270 147 270-77 20v55l240 5v-60l-62-18-149-262h123v-70H97zm0-135v70h450v-70H375V80l85-20V0H185v60l85 20v75H97z"/><glyph unicode="¦" glyph-name="brokenbar" horiz-adv-x="300" d="M185 365h-80v400h80V365zm0-630h-80v410h80v-410z"/><glyph unicode="§" glyph-name="section" horiz-adv-x="545" d="M451 590h-60l-24 105q-16 2-30 3t-29 2q-44 0-68-27t-25-62q0-34 20-59t50-47 65-45 65-48 50-59 20-78q0-98-72-147 28-43 28-93 0-41-14-75t-39-58-61-38-76-14q-38 1-74 7t-53 15l-18 8 5 160h64l21-105q25-5 60-5 19 0 35 7t29 20 19 28 7 33q0 34-20 59t-50 48-65 44-66 48-50 60-20 78q0 97 72 147-27 40-27 93 0 42 14 76t40 58 61 37 76 14q38-1 74-7t53-15l18-8-5-160zm-87-409q26 29 26 72 0 23-7 41t-21 33-35 32-50 34q-29 18-49 32t-31 24q-27-27-27-72 0-23 6-41t21-34 35-32 51-34q29-19 49-32t32-23z"/><glyph unicode="¨" glyph-name="dieresis" horiz-adv-x="515" d="M114 656q-14 16-14 43t15 44 41 17q25 0 39-17t15-43q0-27-16-43t-41-17q-24 0-39 16zm205 0q-14 16-14 43t15 44 41 17q25 0 39-17t15-43q0-27-16-43t-41-17q-24 0-39 16z"/><glyph unicode="©" glyph-name="copyright" horiz-adv-x="820" d="M143 89Q45 189 45 345q0 78 27 145t76 116 116 76 146 28q78 0 145-26t115-73 77-112 28-145q0-78-29-144T667 94 548 18 400-10q-158 0-257 99zm58 469q-76-79-76-208 0-64 20-117t56-91 88-59 116-21q64 0 117 21t91 59 60 92 22 116q0 64-21 117t-61 91-92 59-116 21q-127 0-204-80zm341-144h-56l-14 68q-29 8-62 8-95 0-95-142 0-128 100-128 24 0 50 11t42 22l15 11 27-46-19-18q-5-5-18-12t-30-15-36-13-36-5q-85 0-132 47t-48 142q0 47 13 85t37 65 58 42 79 15q14 0 29-2t31-5 27-8 22-8l18-8-2-106z"/><glyph unicode="ª" glyph-name="ordfeminine" horiz-adv-x="468" d="M83 580l-5 100q95 30 155 30 128 0 128-115V387l57-14v-45l-109-5-16 52q-17-20-53-39t-64-20q-54 0-82 28t-29 84q0 111 162 111h54v50q0 24-16 38t-39 15q-40 0-78-10l-10-52H83zm198-95h-48q-47 0-68-12t-22-39q0-52 52-52 21 0 42 11t33 23l11 11v58zM73 165v70h345v-70H73z"/><glyph unicode="«" glyph-name="guillemotleft" horiz-adv-x="540" d="M365 265l115-150-60-40-145 160v60l145 160 60-40-115-150zm-215 0l110-150-60-40L60 235v60l140 160 60-40-110-150z"/><glyph unicode="¬" glyph-name="logicalnot" horiz-adv-x="615" d="M60 275v80h500V85h-85v190H60z"/><glyph unicode="­" glyph-name="uni00AD" horiz-adv-x="375" d="M60 230v85h260v-85H60z"/><glyph unicode="®" glyph-name="registered" horiz-adv-x="720" d="M137 237q-82 82-82 213 0 65 23 120t64 97 97 64 121 24q65 0 121-22t97-61 64-94 23-118q0-65-24-120t-68-97-100-64-123-24q-131 0-213 82zm53 388q-60-65-60-170 0-54 15-97t45-74 71-47 94-17q52 0 95 17t75 48 48 74 17 96q0 52-17 95t-48 75-74 48-96 17q-103 0-165-65zm25-330v40l40 10v232l-40 8v37l150 3q51 0 84-24t33-68q0-65-62-88 17-18 28-37l32-63 40-10v-40h-86l-40 85q-8 17-14 27t-11 16-13 7-17 2h-19v-87l40-10v-40H215zm105 280v-97h35q27 0 43 13t17 36q0 48-55 48h-40z"/><glyph unicode="¯" glyph-name="overscore" horiz-adv-x="350" d="M40 660v75h270v-75H40z"/><glyph unicode="°" glyph-name="degree" horiz-adv-x="410" d="M204 435q-69 0-111 39T50 583q0 34 11 62t32 48 49 31 63 11q69 0 112-39t43-108q0-34-11-62t-32-48-50-32-63-11zm1 240q-38 0-61-22t-24-66q0-42 21-67t64-25q42 0 63 25t22 67q0 43-23 65t-62 23z"/><glyph unicode="±" glyph-name="plusminus" horiz-adv-x="615" d="M55 302v78h210v160h85V380h210v-78H350V140h-85v162H55zM55 0v78h505V0H55z"/><glyph unicode="²" glyph-name="twosuperior" horiz-adv-x="390" d="M106 570H46l-3 109q72 26 135 26 162 0 162-120 0-57-37-102T155 351h195v-71H35v69q41 34 72 59t52 42 30 26 22 22 18 21 11 20q10 18 10 41 0 60-75 60-32 0-62-10l-7-60z"/><glyph unicode="³" glyph-name="threesuperior" horiz-adv-x="378" d="M97 575H39l-4 111q80 19 145 19 66 0 105-28t40-74q0-86-88-104 38-4 67-30t29-63q0-65-47-98t-127-33q-33 0-67 9t-54 19l-18 9 20 60q60-30 111-30 94 0 94 63 0 58-94 58h-41v61h46q84 0 84 64 0 52-70 52-41 0-68-9l-5-56z"/><glyph unicode="´" glyph-name="acute" horiz-adv-x="420" d="M325 760L130 635l-40 55 185 145 50-75z"/><glyph unicode="µ" glyph-name="mu" horiz-adv-x="655" d="M545 530V80l85-20V5L465 0l-10 70q-96-80-185-80-30 0-60 10v-230H110v680l-85 20v55l185 5V169q2-48 23-71t63-23q42 0 78 20t54 39l17 20v296l-85 20v55l185 5z"/><glyph unicode="¶" glyph-name="paragraph" horiz-adv-x="630" d="M565 695v-55l-85-20v-790h-87v790h-79v-790H140v60l90 20v396q-73 8-121 63T60 507q0 83 55 138t150 55h128l172-5z"/><glyph unicode="·" glyph-name="middot" horiz-adv-x="260" d="M128 233q-30 0-47 18t-18 53q0 35 19 54t49 19q31 0 48-18t18-54q0-34-19-53t-50-19z"/><glyph unicode="¸" glyph-name="cedilla" horiz-adv-x="436" d="M184 0h60v-43q42-7 64-30t23-60q0-18-8-34t-22-27-32-18-37-7q-68 0-108 21l-14 7 24 41q22-11 39-16t37-5q25 0 40 12t16 29q0 27-23 39t-50 12h-9V0z"/><glyph unicode="¹" glyph-name="onesuperior" horiz-adv-x="350" d="M330 345v-65H60v65h95v265L50 545l-35 60 151 95h74V345h90z"/><glyph unicode="º" glyph-name="ordmasculine" horiz-adv-x="495" d="M60 505q0 46 14 84t40 65 61 41 79 15q88 0 134-49t47-143q0-46-13-83t-39-64-60-41-79-15q-87 0-135 48T60 505zm290 7q0 63-26 95t-75 33q-46 0-75-32t-29-96q0-63 28-95t77-32q48 0 74 32t26 95zM70 165v70h355v-70H70z"/><glyph unicode="»" glyph-name="guillemotright" horiz-adv-x="540" d="M60 115l115 150L60 415l60 40 145-160v-60L120 75l-60 40zm220 0l110 150-110 150 60 40 140-160v-60L340 75l-60 40z"/><glyph unicode="¼" glyph-name="onequarter" horiz-adv-x="970" d="M355 345v-65H85v65h95v265L75 545l-35 60 151 95h74V345h90zM225 0l405 700h90L315 0h-90zm324 151l203 280 98-10V157h70V92h-70V1h-85v91H555l-6 59zm216 185L636 157h129v179z"/><glyph unicode="½" glyph-name="onehalf" horiz-adv-x="950" d="M355 345v-65H85v65h95v265L75 545l-35 60 151 95h74V345h90zM225 0l405 700h90L315 0h-90zm426 291h-60l-3 109q72 26 135 26 162 0 162-120 0-57-37-102T700 72h195V1H580v69q41 34 72 59t52 42 30 26 22 22 18 21 11 20q10 18 10 41 0 60-75 60-32 0-62-10l-7-60z"/><glyph unicode="¾" glyph-name="threequarters" horiz-adv-x="963" d="M112 575H54l-4 111q80 19 145 19 66 0 105-28t40-74q0-86-88-104 38-4 67-30t29-63q0-65-47-98t-127-33q-33 0-67 9t-54 19l-18 9 20 60q60-30 111-30 94 0 94 63 0 58-94 58h-41v61h46q84 0 84 64 0 52-70 52-41 0-68-9l-5-56zM218 0l405 700h90L308 0h-90zm324 151l203 280 98-10V157h70V92h-70V1h-85v91H548l-6 59zm216 185L629 157h129v179z"/><glyph unicode="¿" glyph-name="questiondown" horiz-adv-x="476" d="M286 550q29 0 46-18t18-52q0-32-19-51t-48-19q-28 0-45 18t-18 51q0 33 19 52t47 19zm-38-244l90 6q9-68 9-95 0-21-10-39t-27-36-37-35-41-34q-62-54-62-113 0-80 105-80 25-1 47 2t43 8l15 3 16-75q-67-23-126-23-44 0-81 8t-65 26-43 48-16 73q0 25 8 49t21 47 29 41 35 33q92 74 92 124l-2 62z"/><glyph unicode="À" glyph-name="Agrave" horiz-adv-x="725" d="M5 0v60l82 19 228 616 100 5L637 79l83-19V0H430v60l93 19-38 111H225L186 79l94-19V0H5zm352 571L252 270h206L357 571zm83 164L245 860l50 75 185-145-40-55z"/><glyph unicode="Á" glyph-name="Aacute" horiz-adv-x="725" d="M5 0v60l82 19 228 616 100 5L637 79l83-19V0H430v60l93 19-38 111H225L186 79l94-19V0H5zm352 571L252 270h206L357 571zm187 289L349 735l-40 55 185 145 50-75z"/><glyph unicode="Â" glyph-name="Acircumflex" horiz-adv-x="725" d="M5 0v60l82 19 228 616 100 5L637 79l83-19V0H430v60l93 19-38 111H225L186 79l94-19V0H5zm352 571L252 270h206L357 571zm138 179l-133 93-137-93-40 45 145 120 60 5 145-125-40-45z"/><glyph unicode="Ã" glyph-name="Atilde" horiz-adv-x="725" d="M5 0v60l82 19 228 616 100 5L637 79l83-19V0H430v60l93 19-38 111H225L186 79l94-19V0H5zm352 571L252 270h206L357 571zM242 805l-35 35q18 42 48 68t64 26q20 0 39-6t45-16 45-17 33-7q24 0 40 10t23 22l8 10 35-35q-4-12-14-27t-24-31-31-24-38-8q-17 0-40 6t-48 16-43 16-32 6q-23-1-41-11t-26-22l-8-11z"/><glyph unicode="Ä" glyph-name="Adieresis" horiz-adv-x="725" d="M5 0v60l82 19 228 616 100 5L637 79l83-19V0H430v60l93 19-38 111H225L186 79l94-19V0H5zm352 571L252 270h206L357 571zM224 781q-14 16-14 43t15 44 41 17q25 0 39-17t15-43q0-27-16-43t-41-17q-24 0-39 16zm205 0q-14 16-14 43t15 44 41 17q25 0 39-17t15-43q0-27-16-43t-41-17q-24 0-39 16z"/><glyph unicode="Å" glyph-name="Aring" horiz-adv-x="725" d="M250 795q0 51 35 83t80 32q46 0 80-29t35-73q0-82-64-111L637 79l83-19V0H430v60l93 19-38 111H225L186 79l94-19V0H5v60l82 19 228 616q-65 28-65 100zm107-224L252 270h206L357 571zm-47 226q0-62 55-62 24 0 39 17t16 46q0 62-55 62-24 0-39-17t-16-46z"/><glyph unicode="Æ" glyph-name="AE" horiz-adv-x="959" d="M390 0v60l90 20v125H260L197 77l78-17V0H5v60l89 20 277 540-85 20v55l126 5h477V530h-65l-25 90H585V405h229v-80H585V80h229l20 100h65V0H390zm-90 285h180v335h-15L300 285z"/><glyph unicode="Ç" glyph-name="Ccedilla" horiz-adv-x="645" d="M595 491h-75l-27 114q-54 20-128 20-102 0-156-73t-54-208q0-134 58-199t157-65q22 0 47 6t50 14 44 19 33 21l26 20 40-65q-18-18-41-34t-49-31-56-23-59-14v-37q85-15 85-89 0-20-9-36t-24-27-33-17-36-7q-32-1-59 6t-51 18l-15 7 26 42q48-23 75-23 56 0 56 40 0 23-21 36t-59 14v71Q196-3 118 84T40 340q0 84 23 152t68 116 105 75 139 27q23 0 50-3t54-10 50-12 39-13l32-12-5-169z"/><glyph unicode="È" glyph-name="Egrave" horiz-adv-x="625" d="M465 620H250V405h230v-80H250V80h230l20 100h65V0H60v60l85 20v540l-85 20v55l190 5h305V530h-65l-25 90zm-96 115L174 860l50 75 185-145-40-55z"/><glyph unicode="É" glyph-name="Eacute" horiz-adv-x="625" d="M465 620H250V405h230v-80H250V80h230l20 100h65V0H60v60l85 20v540l-85 20v55l190 5h305V530h-65l-25 90zm10 240L280 735l-40 55 185 145 50-75z"/><glyph unicode="Ê" glyph-name="Ecircumflex" horiz-adv-x="625" d="M465 620H250V405h230v-80H250V80h230l20 100h65V0H60v60l85 20v540l-85 20v55l190 5h305V530h-65l-25 90zm-10 130l-133 93-137-93-40 45 145 120 60 5 145-125-40-45z"/><glyph unicode="Ë" glyph-name="Edieresis" horiz-adv-x="625" d="M465 620H250V405h230v-80H250V80h230l20 100h65V0H60v60l85 20v540l-85 20v55l190 5h305V530h-65l-25 90zM174 781q-14 16-14 43t15 44 41 17q25 0 39-17t15-43q0-27-16-43t-41-17q-24 0-39 16zm205 0q-14 16-14 43t15 44 41 17q25 0 39-17t15-43q0-27-16-43t-41-17q-24 0-39 16z"/><glyph unicode="Ì" glyph-name="Igrave" horiz-adv-x="355" d="M315 60V0H40v60l85 20v540l-85 20v55l275 5v-60l-85-20V80l85-20zm156 675L276 860l50 75 185-145-40-55z"/><glyph unicode="Í" glyph-name="Iacute" horiz-adv-x="355" d="M315 60V0H40v60l85 20v540l-85 20v55l275 5v-60l-85-20V80l85-20zm15 800L135 735l-40 55 185 145 50-75z"/><glyph unicode="Î" glyph-name="Icircumflex" horiz-adv-x="355" d="M305 750l-126 93-130-93-40 45 138 120 60 5 138-125-40-45zm12-690V0H42v60l85 20v540l-85 20v55l275 5v-60l-85-20V80l85-20z"/><glyph unicode="Ï" glyph-name="Idieresis" horiz-adv-x="355" d="M315 60V0H40v60l85 20v540l-85 20v55l275 5v-60l-85-20V80l85-20zm-24 721q-14 16-14 43t15 44 41 17q25 0 39-17t15-43q0-27-16-43t-41-17q-24 0-39 16zm205 0q-14 16-14 43t15 44 41 17q25 0 39-17t15-43q0-27-16-43t-41-17q-24 0-39 16z"/><glyph unicode="Ð" glyph-name="Eth" horiz-adv-x="733" d="M60 330v79h85v211l-85 20v55l190 5h128q74 0 132-22t99-66 62-107 22-146q0-82-23-148T603 98 499 26 363 0H60v60l85 20v250H60zm189 290V409h156v-79H249V80h119q99 0 154 68t56 205q0 138-54 202t-151 65H249z"/><glyph unicode="Ñ" glyph-name="Ntilde" horiz-adv-x="790" d="M545 0L215 551V80l95-20V0H40v60l85 20v540l-85 20v55l210 5 330-559v479l-85 20v55l260 5v-60l-85-20V0H545zM236 766l-35 35q18 42 48 68t64 26q20 0 39-6t45-16 45-17 33-7q24 0 40 10t23 22l8 10 35-35q-4-12-14-27t-24-31-31-24-38-8q-17 0-40 6t-48 16-43 16-32 6q-23-1-41-11t-26-22l-8-11z"/><glyph unicode="Ò" glyph-name="Ograve" horiz-adv-x="755" d="M60 342q0 84 22 152t66 116 102 74 133 26q73 0 131-24t98-71 62-111 21-146q0-81-24-148T604 94 499 18 364-10q-147 0-225 91T60 342zm320 283q-205 0-205-275T370 75q100 0 155 70t55 210q0 270-200 270zm50 110L235 860l50 75 185-145-40-55z"/><glyph unicode="Ó" glyph-name="Oacute" horiz-adv-x="755" d="M60 342q0 84 22 152t66 116 102 74 133 26q73 0 131-24t98-71 62-111 21-146q0-81-24-148T604 94 499 18 364-10q-147 0-225 91T60 342zm320 283q-205 0-205-275T370 75q100 0 155 70t55 210q0 270-200 270zm130 235L315 735l-40 55 185 145 50-75z"/><glyph unicode="Ô" glyph-name="Ocircumflex" horiz-adv-x="755" d="M60 342q0 84 22 152t66 116 102 74 133 26q73 0 131-24t98-71 62-111 21-146q0-81-24-148T604 94 499 18 364-10q-147 0-225 91T60 342zm320 283q-205 0-205-275T370 75q100 0 155 70t55 210q0 270-200 270zm128 125l-133 93-137-93-40 45 145 120 60 5 145-125-40-45z"/><glyph unicode="Õ" glyph-name="Otilde" horiz-adv-x="755" d="M60 342q0 84 22 152t66 116 102 74 133 26q73 0 131-24t98-71 62-111 21-146q0-81-24-148T604 94 499 18 364-10q-147 0-225 91T60 342zm320 283q-205 0-205-275T370 75q100 0 155 70t55 210q0 270-200 270zM223 805l-35 35q18 42 48 68t64 26q20 0 39-6t45-16 45-17 33-7q24 0 40 10t23 22l8 10 35-35q-4-12-14-27t-24-31-31-24-38-8q-17 0-40 6t-48 16-43 16-32 6q-23-1-41-11t-26-22l-8-11z"/><glyph unicode="Ö" glyph-name="Odieresis" horiz-adv-x="755" d="M60 342q0 84 22 152t66 116 102 74 133 26q73 0 131-24t98-71 62-111 21-146q0-81-24-148T604 94 499 18 364-10q-147 0-225 91T60 342zm320 283q-205 0-205-275T370 75q100 0 155 70t55 210q0 270-200 270zM234 781q-14 16-14 43t15 44 41 17q25 0 39-17t15-43q0-27-16-43t-41-17q-24 0-39 16zm205 0q-14 16-14 43t15 44 41 17q25 0 39-17t15-43q0-27-16-43t-41-17q-24 0-39 16z"/><glyph unicode="×" glyph-name="multiply" horiz-adv-x="600" d="M60 449l56 56 184-184 184 184 56-56-184-184L540 81l-56-56-184 184L116 25 60 81l184 184L60 449z"/><glyph unicode="Ø" glyph-name="Oslash" horiz-adv-x="755" d="M595 785l65-35-68-113q103-94 103-269 0-86-24-155T604 94 499 17 365-10q-84 0-145 30l-75-125-65 35 79 131q-99 90-99 284 0 83 23 150t65 115 103 74 134 26q80 0 146-32l64 107zm-58-239L269 101q41-26 101-26 101 0 155 70t55 201q0 132-43 200zm-54 53q-44 26-103 26-205 0-205-275 0-123 41-194l267 443z"/><glyph unicode="Ù" glyph-name="Ugrave" horiz-adv-x="790" d="M665 620V285q0-147-62-221T394-10q-147 0-208 68t-61 212v350l-85 20v55l285 5v-60l-95-20V270q0-110 38-152t129-43q91 0 127 46t36 164v335l-95 20v55l285 5v-60l-85-20zM430 735L235 860l50 75 185-145-40-55z"/><glyph unicode="Ú" glyph-name="Uacute" horiz-adv-x="790" d="M665 620V285q0-147-62-221T394-10q-147 0-208 68t-61 212v350l-85 20v55l285 5v-60l-95-20V270q0-110 38-152t129-43q91 0 127 46t36 164v335l-95 20v55l285 5v-60l-85-20zM554 860L359 735l-40 55 185 145 50-75z"/><glyph unicode="Û" glyph-name="Ucircumflex" horiz-adv-x="790" d="M665 620V285q0-147-62-221T394-10q-147 0-208 68t-61 212v350l-85 20v55l285 5v-60l-95-20V270q0-110 38-152t129-43q91 0 127 46t36 164v335l-95 20v55l285 5v-60l-85-20zM529 750l-133 93-137-93-40 45 145 120 60 5 145-125-40-45z"/><glyph unicode="Ü" glyph-name="Udieresis" horiz-adv-x="790" d="M665 620V285q0-147-62-221T394-10q-147 0-208 68t-61 212v350l-85 20v55l285 5v-60l-95-20V270q0-110 38-152t129-43q91 0 127 46t36 164v335l-95 20v55l285 5v-60l-85-20zM244 781q-14 16-14 43t15 44 41 17q25 0 39-17t15-43q0-27-16-43t-41-17q-24 0-39 16zm205 0q-14 16-14 43t15 44 41 17q25 0 39-17t15-43q0-27-16-43t-41-17q-24 0-39 16z"/><glyph unicode="Ý" glyph-name="Yacute" horiz-adv-x="645" d="M185 0v60l85 20v179L77 621l-67 19v55l250 5v-60l-68-20 133-280 147 280-77 20v55l240 5v-60l-62-18-198-361V80l85-20V0H185zm320 860L310 735l-40 55 185 145 50-75z"/><glyph unicode="Þ" glyph-name="Thorn" horiz-adv-x="605" d="M230 620v-55h105q108 0 169-49t61-136q0-109-68-167t-197-58h-70V80l85-20V0H40v60l85 20v540l-85 20v55l275 5v-60l-85-20zm0-135V235h70q79 0 122 33t43 92q0 59-36 92t-99 33H230z"/><glyph unicode="ß" glyph-name="germandbls" horiz-adv-x="761" d="M70 450v65l110 10v55q0 94 58 147t161 53q51 0 93-9t73-29 48-48 17-69q0-39-20-71t-46-52q-65-50-65-92 0-26 17-43t43-32 55-26 56-32 43-46 17-70q0-37-17-68t-46-54-66-36-78-13q-38 1-70 4T394 6l-18 6v144h64l15-81q20-10 58-10 50 0 81 20t31 56q0 28-17 45t-42 31-56 26-55 31-43 44-17 68q0 31 8 53t21 38 28 29 30 24q48 36 48 85 0 24-10 41t-27 28-41 16-51 5q-54 0-87-28t-34-77V0H95v55l85 25v370H70z"/><glyph unicode="à" glyph-name="agrave" horiz-adv-x="565" d="M75 500q108 40 198 40 88 0 135-35t47-120V80l80-20V5L380 0l-21 70q-80-80-158-80T84 29 45 140q0 155 230 155h80v80q0 90-95 90-54 0-89-11l-12-4-14-75H80l-5 125zm280-270h-70q-75 0-106-19t-32-61q0-39 18-59t54-21q17 0 34 6t34 15 30 19 21 20l17 20v80zm-10 622L135 982l50 75 195-155-35-50z"/><glyph unicode="á" glyph-name="aacute" horiz-adv-x="565" d="M75 500q108 40 198 40 88 0 135-35t47-120V80l80-20V5L380 0l-21 70q-80-80-158-80T84 29 45 140q0 155 230 155h80v80q0 90-95 90-54 0-89-11l-12-4-14-75H80l-5 125zm280-270h-70q-75 0-106-19t-32-61q0-39 18-59t54-21q17 0 34 6t34 15 30 19 21 20l17 20v80zm49 496L194 596l-35 50 195 155 50-75z"/><glyph unicode="â" glyph-name="acircumflex" horiz-adv-x="565" d="M75 500q108 40 198 40 88 0 135-35t47-120V80l80-20V5L380 0l-21 70q-80-80-158-80T84 29 45 140q0 155 230 155h80v80q0 90-95 90-54 0-89-11l-12-4-14-75H80l-5 125zm280-270h-70q-75 0-106-19t-32-61q0-39 18-59t54-21q17 0 34 6t34 15 30 19 21 20l17 20v80zm45 628L262 966 120 858l-40 45 150 135 60 5 150-140-40-45z"/><glyph unicode="ã" glyph-name="atilde" horiz-adv-x="565" d="M75 500q108 40 198 40 88 0 135-35t47-120V80l80-20V5L380 0l-21 70q-80-80-158-80T84 29 45 140q0 155 230 155h80v80q0 90-95 90-54 0-89-11l-12-4-14-75H80l-5 125zm280-270h-70q-75 0-106-19t-32-61q0-39 18-59t54-21q17 0 34 6t34 15 30 19 21 20l17 20v80zm9 405l-35 35q18 42 48 68t64 26q20 0 39-6t45-16 45-17 33-7q24 0 40 10t23 22l8 10 35-35q-4-12-14-27t-24-31-31-24-38-8q-17 0-40 6t-48 16-43 16-32 6q-23-1-41-11t-26-22l-8-11z"/><glyph unicode="ä" glyph-name="adieresis" horiz-adv-x="565" d="M75 500q108 40 198 40 88 0 135-35t47-120V80l80-20V5L380 0l-21 70q-80-80-158-80T84 29 45 140q0 155 230 155h80v80q0 90-95 90-54 0-89-11l-12-4-14-75H80l-5 125zm280-270h-70q-75 0-106-19t-32-61q0-39 18-59t54-21q17 0 34 6t34 15 30 19 21 20l17 20v80zM119 656q-14 16-14 43t15 44 41 17q25 0 39-17t15-43q0-27-16-43t-41-17q-24 0-39 16zm205 0q-14 16-14 43t15 44 41 17q25 0 39-17t15-43q0-27-16-43t-41-17q-24 0-39 16z"/><glyph unicode="å" glyph-name="aring" horiz-adv-x="565" d="M75 500q108 40 198 40 88 0 135-35t47-120V80l80-20V5L380 0l-21 70q-80-80-158-80T84 29 45 140q0 155 230 155h80v80q0 90-95 90-54 0-89-11l-12-4-14-75H80l-5 125zm280-270h-70q-75 0-106-19t-32-61q0-39 18-59t54-21q17 0 34 6t34 15 30 19 21 20l17 20v80zM201 624q-34 30-34 81 0 26 10 47t26 37 38 23 42 8q21 0 41-7t37-22 26-35 10-46q0-27-10-48t-27-36-38-23-42-8q-44 0-79 29zm26 83q0-62 55-62 24 0 39 17t16 46q0 62-55 62-24 0-39-17t-16-46z"/><glyph unicode="æ" glyph-name="ae" horiz-adv-x="835" d="M800 305l-5-53-345-2q0-82 39-131t106-49q22 0 44 4t41 10 36 13 27 15l20 13 35-52q-34-27-62-41T669 4t-84-14Q443-10 388 96q-7-9-23-27t-42-35-57-31-71-13q-72 0-111 39T45 140q0 155 230 155h80v80q0 90-95 90-54 0-89-11l-12-4-14-75H80l-5 125q108 40 195 40 120 0 156-70 64 70 164 70 210 0 210-235zm-445-75h-70q-75 0-107-19t-33-61q0-44 22-62t50-18q25 0 47 9t38 21 28 25 18 21l7 9v75zm99 95h240q0 61-26 99t-84 38q-57 0-91-38t-39-99z"/><glyph unicode="ç" glyph-name="ccedilla" horiz-adv-x="510" d="M465 365h-65l-15 85q-39 10-90 10-72 0-111-46t-39-143q0-97 41-149t114-52q21 0 41 4t39 10 34 15 24 16l17 15 35-60q-14-12-34-25t-44-24-48-19-44-10v-36q40-8 63-31t24-59q0-18-8-34t-23-27-32-17-36-7q-66 0-108 21l-14 7 24 41q45-21 75-21 57 0 57 41 0 23-22 37t-60 14v71Q151 0 96 71T40 265q0 60 18 110t53 87 82 57 107 21q20 0 41-3t41-7 37-9 29-11l22-10-5-135z"/><glyph unicode="è" glyph-name="egrave" horiz-adv-x="530" d="M490 252l-345-2q0-82 39-131t106-49q22 0 44 4t41 10 36 13 27 15l20 13 35-52q-34-27-62-42T364 3t-84-13q-118 0-179 71T40 257q0 62 18 114t50 89 78 59 99 21q210 0 210-235l-5-53zm-341 73h240q0 61-26 99t-84 38q-57 0-91-38t-39-99zm196 527L135 982l50 75 195-155-35-50z"/><glyph unicode="é" glyph-name="eacute" horiz-adv-x="530" d="M490 252l-345-2q0-82 39-131t106-49q22 0 44 4t41 10 36 13 27 15l20 13 35-52q-34-27-62-42T364 3t-84-13q-118 0-179 71T40 257q0 62 18 114t50 89 78 59 99 21q210 0 210-235l-5-53zm-341 73h240q0 61-26 99t-84 38q-57 0-91-38t-39-99zm271 401L210 596l-35 50 195 155 50-75z"/><glyph unicode="ê" glyph-name="ecircumflex" horiz-adv-x="530" d="M490 252l-345-2q0-82 39-131t106-49q22 0 44 4t41 10 36 13 27 15l20 13 35-52q-34-27-62-42T364 3t-84-13q-118 0-179 71T40 257q0 62 18 114t50 89 78 59 99 21q210 0 210-235l-5-53zm-341 73h240q0 61-26 99t-84 38q-57 0-91-38t-39-99zm261 532L272 965 130 857l-40 45 150 135 60 5 150-140-40-45z"/><glyph unicode="ë" glyph-name="edieresis" horiz-adv-x="530" d="M490 252l-345-2q0-82 39-131t106-49q22 0 44 4t41 10 36 13 27 15l20 13 35-52q-34-27-62-42T364 3t-84-13q-118 0-179 71T40 257q0 62 18 114t50 89 78 59 99 21q210 0 210-235l-5-53zm-341 73h240q0 61-26 99t-84 38q-57 0-91-38t-39-99zm-20 331q-14 16-14 43t15 44 41 17q25 0 39-17t15-43q0-27-16-43t-41-17q-24 0-39 16zm205 0q-14 16-14 43t15 44 41 17q25 0 39-17t15-43q0-27-16-43t-41-17q-24 0-39 16z"/><glyph unicode="ì" glyph-name="igrave" horiz-adv-x="335" d="M225 530V80l75-25V0H40v55l85 25v370l-85 20v55l185 5zm257 322L272 982l50 75 195-155-35-50z"/><glyph unicode="í" glyph-name="iacute" horiz-adv-x="335" d="M225 530V80l75-25V0H40v55l85 25v370l-85 20v55l185 5zm85 205L100 605l-35 50 195 155 50-75z"/><glyph unicode="î" glyph-name="icircumflex" horiz-adv-x="335" d="M225 530V80l75-25V0H40v55l85 25v370l-85 20v55l185 5zm70 70L167 708 35 600l-40 45 140 135 60 5 140-140-40-45z"/><glyph unicode="ï" glyph-name="idieresis" horiz-adv-x="335" d="M225 530V80l75-25V0H40v55l85 25v370l-85 20v55l185 5zM29 656q-14 16-14 43t15 44 41 17q25 0 39-17t15-43q0-27-16-43t-41-17q-24 0-39 16zm195 0q-14 16-14 43t15 44 41 17q25 0 39-17t15-43q0-27-16-43t-41-17q-24 0-39 16z"/><glyph unicode="ð" glyph-name="eth" horiz-adv-x="595" d="M471 727l-94-51q158-143 158-411 0-62-18-112t-51-87-79-56-103-20q-112 0-175 65T45 247q0 63 17 112t49 84 77 53 102 19q69 0 123-42-36 100-112 162l-131-70-40 55 108 58q-45 25-98 42l30 63q81-20 148-61l112 61 41-56zM295 435q-145 0-145-185 0-85 34-132t107-48q72 0 105 46t34 139q0 180-135 180z"/><glyph unicode="ñ" glyph-name="ntilde" horiz-adv-x="665" d="M205 530l9-71q10 8 28 22t42 27 54 22 62 10q81 0 120-47t40-133V80l75-25V0H395v55l65 25v270q0 54-21 79t-64 26q-21 0-41-5t-38-15-31-19-23-21l-17-20V80l65-25V0H40v55l85 25v370l-85 20v55l165 5zm-28 105l-35 35q18 42 48 68t64 26q20 0 39-6t45-16 45-17 33-7q24 0 40 10t23 22l8 10 35-35q-4-12-14-27t-24-31-31-24-38-8q-17 0-40 6t-48 16-43 16-32 6q-23-1-41-11t-26-22l-8-11z"/><glyph unicode="ò" glyph-name="ograve" horiz-adv-x="570" d="M40 257q0 64 18 116t53 90 80 57 103 20q112 0 174-71t62-197q0-62-18-113t-50-89-79-59-104-21q-114 0-176 68T40 257zm250 203q-145 0-145-195T285 70q73 0 106 50t34 150q0 190-135 190zm65 392L145 982l50 75 195-155-35-50z"/><glyph unicode="ó" glyph-name="oacute" horiz-adv-x="570" d="M40 257q0 64 18 116t53 90 80 57 103 20q112 0 174-71t62-197q0-62-18-113t-50-89-79-59-104-21q-114 0-176 68T40 257zm250 203q-145 0-145-195T285 70q73 0 106 50t34 150q0 190-135 190zm134 266L214 596l-35 50 195 155 50-75z"/><glyph unicode="ô" glyph-name="ocircumflex" horiz-adv-x="570" d="M40 257q0 64 18 116t53 90 80 57 103 20q112 0 174-71t62-197q0-62-18-113t-50-89-79-59-104-21q-114 0-176 68T40 257zm250 203q-145 0-145-195T285 70q73 0 106 50t34 150q0 190-135 190zm140 397L292 965 150 857l-40 45 150 135 60 5 150-140-40-45z"/><glyph unicode="õ" glyph-name="otilde" horiz-adv-x="570" d="M40 257q0 64 18 116t53 90 80 57 103 20q112 0 174-71t62-197q0-62-18-113t-50-89-79-59-104-21q-114 0-176 68T40 257zm250 203q-145 0-145-195T285 70q73 0 106 50t34 150q0 190-135 190zM130 635l-35 35q18 42 48 68t64 26q20 0 39-6t45-16 45-17 33-7q24 0 40 10t23 22l8 10 35-35q-4-12-14-27t-24-31-31-24-38-8q-17 0-40 6t-48 16-43 16-32 6q-23-1-41-11t-26-22l-8-11z"/><glyph unicode="ö" glyph-name="odieresis" horiz-adv-x="570" d="M40 257q0 64 18 116t53 90 80 57 103 20q112 0 174-71t62-197q0-62-18-113t-50-89-79-59-104-21q-114 0-176 68T40 257zm250 203q-145 0-145-195T285 70q73 0 106 50t34 150q0 190-135 190zM139 656q-14 16-14 43t15 44 41 17q25 0 39-17t15-43q0-27-16-43t-41-17q-24 0-39 16zm205 0q-14 16-14 43t15 44 41 17q25 0 39-17t15-43q0-27-16-43t-41-17q-24 0-39 16z"/><glyph unicode="÷" glyph-name="divide" horiz-adv-x="620" d="M309-10q-29 0-46 18t-18 51q0 33 18 52t48 19q29 0 46-18t18-52q0-32-18-51t-48-19zm0 410q-29 0-46 18t-18 51q0 33 18 52t48 19q29 0 46-18t18-52q0-32-18-51t-48-19zM50 225v80h520v-80H50z"/><glyph unicode="ø" glyph-name="oslash" horiz-adv-x="580" d="M50-70l69 116q-74 69-74 205 0 68 19 121t52 91 81 57 103 20q54 0 102-20l63 105 60-35-65-109q75-71 75-202 0-65-18-118t-50-92-79-58-103-21q-59 0-107 19l-68-114-60 35zm245 530q-145 0-145-195 0-80 23-128l185 309q-30 14-63 14zm-5-390q140 0 140 188 0 87-23 135L223 85q28-15 67-15z"/><glyph unicode="ù" glyph-name="ugrave" horiz-adv-x="650" d="M540 530V80l85-20V5L460 0l-10 70q-42-37-95-58t-90-22q-80 0-120 47t-40 132v281l-85 20v55l185 5V179q0-53 21-78t64-26q43 0 79 20t53 39l18 20v296l-85 20v55l185 5zm-155 66L175 726l50 75 195-155-35-50z"/><glyph unicode="ú" glyph-name="uacute" horiz-adv-x="650" d="M540 530V80l85-20V5L460 0l-10 70q-42-37-95-58t-90-22q-80 0-120 47t-40 132v281l-85 20v55l185 5V179q0-53 21-78t64-26q43 0 79 20t53 39l18 20v296l-85 20v55l185 5zm-80 196L250 596l-35 50 195 155 50-75z"/><glyph unicode="û" glyph-name="ucircumflex" horiz-adv-x="650" d="M540 530V80l85-20V5L460 0l-10 70q-42-37-95-58t-90-22q-80 0-120 47t-40 132v281l-85 20v55l185 5V179q0-53 21-78t64-26q43 0 79 20t53 39l18 20v296l-85 20v55l185 5zm-75 327L327 965 185 857l-40 45 150 135 60 5 150-140-40-45z"/><glyph unicode="ü" glyph-name="udieresis" horiz-adv-x="650" d="M540 530V80l85-20V5L460 0l-10 70q-42-37-95-58t-90-22q-80 0-120 47t-40 132v281l-85 20v55l185 5V179q0-53 21-78t64-26q43 0 79 20t53 39l18 20v296l-85 20v55l185 5zM169 656q-14 16-14 43t15 44 41 17q25 0 39-17t15-43q0-27-16-43t-41-17q-24 0-39 16zm205 0q-14 16-14 43t15 44 41 17q25 0 39-17t15-43q0-27-16-43t-41-17q-24 0-39 16z"/><glyph unicode="ý" glyph-name="yacute" horiz-adv-x="575" d="M245 530v-60l-70-10 120-350 110 345-70 15v55l237 5v-60l-65-10L365 64q-50-131-74-174-75-129-196-130l-64 5 9 70h50q49 0 85 41T249-2L70 455l-60 15v55l235 5zm240 196L275 596l-35 50 195 155 50-75z"/><glyph unicode="þ" glyph-name="thorn" horiz-adv-x="615" d="M315-175v-55H30v55l80 20v845l-85 20v55l185 5V480q11 11 28 21t38 19 40 14 39 6q106 0 160-69t55-198q0-62-16-114t-51-89-84-59-119-21q-22 0-41 2t-37 8l-12 4v-159l105-20zM210 390V90q31-20 105-20 150 0 150 200 0 88-32 139t-98 51q-38 0-71-17t-54-53z"/><glyph unicode="ÿ" glyph-name="ydieresis" horiz-adv-x="575" d="M245 530v-60l-70-10 120-350 110 345-70 15v55l237 5v-60l-65-10L365 64q-50-131-74-174-75-129-196-130l-64 5 9 70h50q49 0 85 41T249-2L70 455l-60 15v55l235 5zm-96 126q-14 16-14 43t15 44 41 17q25 0 39-17t15-43q0-27-16-43t-41-17q-24 0-39 16zm205 0q-14 16-14 43t15 44 41 17q25 0 39-17t15-43q0-27-16-43t-41-17q-24 0-39 16z"/><glyph unicode="–" glyph-name="endash" horiz-adv-x="500" d="M0 285v80h500v-80H0z"/><glyph unicode="—" glyph-name="emdash" horiz-adv-x="970" d="M0 285v80h970v-80H0z"/><glyph unicode="‘" glyph-name="quoteleft" horiz-adv-x="280" d="M130 496q-65 0-65 74 0 88 115 210l45-38q-53-71-53-106 0-6 3-13t9-18 8-23 3-24q0-24-18-43t-47-19z"/><glyph unicode="’" glyph-name="quoteright" horiz-adv-x="280" d="M55 534q53 71 53 106 0 6-3 13t-8 18-8 23-4 24q0 24 18 43t47 19q65 0 65-74 0-88-115-210l-45 38z"/><glyph unicode="‚" glyph-name="quotesinglbase" horiz-adv-x="280" d="M55-136q53 71 53 106 0 3-3 11T97 1t-9 23-3 24q0 24 18 43t47 19q65 0 65-74 0-88-115-210l-45 38z"/><glyph unicode="“" glyph-name="quotedblleft" horiz-adv-x="475" d="M325 496q-65 0-65 74 0 88 115 210l45-38q-53-71-53-106 0-6 3-13t9-18 8-23 3-24q0-24-18-43t-47-19zm-195 0q-65 0-65 74 0 88 115 210l45-38q-53-71-53-106 0-6 3-13t9-18 8-23 3-24q0-24-18-43t-47-19z"/><glyph unicode="”" glyph-name="quotedblright" horiz-adv-x="475" d="M55 534q53 71 53 106 0 5-3 12t-8 19-9 23-3 24q0 24 18 43t47 19q65 0 65-74 0-88-115-210l-45 38zm195 0q53 71 53 106 0 5-3 12t-8 19-9 23-3 24q0 24 18 43t47 19q65 0 65-74 0-88-115-210l-45 38z"/><glyph unicode="„" glyph-name="quotedblbase" horiz-adv-x="475" d="M55-136q53 71 53 106 0 3-3 11T97 1t-9 23-3 24q0 24 18 43t47 19q65 0 65-74 0-88-115-210l-45 38zm195 0q53 71 53 106 0 3-3 11t-9 20-8 23-3 24q0 24 18 43t47 19q65 0 65-74 0-88-115-210l-45 38z"/><glyph unicode="•" glyph-name="bullet" horiz-adv-x="505" d="M132 202q-47 47-47 113 0 33 12 62t35 50 51 35 62 13q33 0 62-13t50-34 35-51 13-62q0-33-13-62t-34-51-51-34-62-13q-66 0-113 47z"/><glyph unicode="‹" glyph-name="guilsinglleft" horiz-adv-x="315" d="M145 265l115-150-60-40L55 235v60l145 160 60-40-115-150z"/><glyph unicode="›" glyph-name="guilsinglright" horiz-adv-x="315" d="M60 115l115 150L60 415l60 40 145-160v-60L120 75l-60 40z"/></font>
</defs>
</svg>
