<svg height="512pt" viewBox="0 0 512 512" width="512pt" xmlns="http://www.w3.org/2000/svg"><path d="M414.898 512H512v-7.855a249.223 249.223 0 00-4.059-45.11l-8.21-30.543c-9.524-34.715-41.43-58.508-77.419-57.734H89.688c-35.988-.774-67.894 23.02-77.417 57.734l-8.207 30.543A248.876 248.876 0 000 504.145V512zm0 0" fill="#e64c3c"/><path d="M158.898 344.277h-36.812a24.845 24.845 0 00-15.274 4.856 15.1 15.1 0 00-6.265 9.265l-2.559 12.36-5.386 31.164L70.622 512h370.757l-27.277-141.242-2.559-12.36a20.903 20.903 0 00-21.629-14.12h-36.809" fill="#c03a2b"/><path d="M429.816 512H321.148L92.602 401.922l5.386-31.164 2.559-12.36a15.1 15.1 0 016.265-9.265zm0 0" fill="#cb8252"/><path d="M397.242 282.484c0 32.133-26.484 64.176-79.449 72.207C273.391 361.402 256 370.758 256 370.758s-17.39-9.356-61.793-16.067c-52.965-8.03-79.45-40.074-79.45-72.207a564.806 564.806 0 018.829-80.246V70.621A70.605 70.605 0 01194.207 0h123.586a70.605 70.605 0 0170.621 70.621v131.617a564.806 564.806 0 018.828 80.246zm0 0" fill="#e64c3c"/><path d="M388.414 150.07v52.168s-17.656 16.067-61.793 16.067-61.793-16.067-70.621-24.098c-8.828 8.031-26.484 24.098-70.621 24.098-44.137 0-61.793-16.067-61.793-16.067V150.07c.023-29.242 23.723-52.941 52.965-52.965h158.898c29.242.024 52.942 23.723 52.965 52.965zm0 0" fill="#f0c419"/><g fill="#c03a2b"><path d="M256 335.45a8.829 8.829 0 01-8.828-8.829v-88.277a8.829 8.829 0 0117.656 0v88.277A8.829 8.829 0 01256 335.45zm0 0"/><path d="M195.844 283.277a119.746 119.746 0 01-49.723-10.554c-4.363-2.18-6.137-7.485-3.957-11.848a8.827 8.827 0 0111.844-3.953 101.408 101.408 0 0097.097-8.274c4.051-2.648 9.485-1.539 12.172 2.493s1.625 9.472-2.379 12.195a115.618 115.618 0 01-65.054 19.941zm0 0"/><path d="M316.156 283.277a115.59 115.59 0 01-65.05-19.933 8.829 8.829 0 119.793-14.691 102.51 102.51 0 0097.085 8.277 8.828 8.828 0 018.813.527 8.832 8.832 0 01-.918 15.266 119.733 119.733 0 01-49.723 10.554zm-120.312 34.606a119.689 119.689 0 01-49.723-10.559 8.828 8.828 0 01-3.957-11.844 8.832 8.832 0 0111.844-3.957 101.397 101.397 0 0097.097-8.27c4.055-2.698 9.532-1.6 12.235 2.454 2.703 4.05 1.61 9.531-2.442 12.234a115.649 115.649 0 01-65.054 19.942zm0 0"/><path d="M316.156 317.883a115.593 115.593 0 01-65.05-19.938 8.826 8.826 0 01-2.446-12.238c2.703-4.05 8.18-5.148 12.238-2.45a102.542 102.542 0 0097.086 8.274 8.827 8.827 0 0111.844 3.95 8.825 8.825 0 01-3.95 11.843 119.676 119.676 0 01-49.722 10.559zm72.258-247.262v44.137a61.754 61.754 0 00-18.086-43.707 61.754 61.754 0 00-43.707-18.086H185.38a61.754 61.754 0 00-43.707 18.086 61.754 61.754 0 00-18.086 43.707V70.62A70.605 70.605 0 01194.207 0h123.586a70.605 70.605 0 0170.621 70.621zm0 0"/></g><path d="M231.215 147.55a87.747 87.747 0 00-24.664-10.132 62.81 62.81 0 00-35.38.715c4.106-14.946 39.852-11.18 56.294-3.973a8.335 8.335 0 015.469 5.692 8.338 8.338 0 01-1.72 7.699zm-1.699 17.36c0-10.45-7.903-18.922-17.653-18.922s-17.656 8.473-17.656 18.922c0 10.45 7.906 18.922 17.656 18.922s17.653-8.473 17.653-18.922zm0 0" fill="#2c2f38"/><path d="M216.813 148.488a8.833 8.833 0 00-11.391 5.114 8.833 8.833 0 005.113 11.39 8.827 8.827 0 0011.39-5.113 8.833 8.833 0 00-5.113-11.39zm0 0" fill="#fff"/><path d="M279.84 149.402a49.234 49.234 0 0124.86-17.32 35.406 35.406 0 0136.304 11.527c-.137-.132.137-2.945.086-3.382a11.99 11.99 0 00-.918-3.32 16.79 16.79 0 00-4.469-5.84 35.966 35.966 0 00-16.39-7.493 44.866 44.866 0 00-24.083 1.192 36.957 36.957 0 00-12.664 7.46c-3.238 2.97-8.043 8.43-5.957 13.407a28.074 28.074 0 003.23 3.77zm0 0" fill="#2c2f38"/><path d="M317.793 164.91c0-10.45-7.902-18.922-17.656-18.922-9.75 0-17.653 8.473-17.653 18.922 0 10.45 7.903 18.922 17.653 18.922 9.754 0 17.656-8.473 17.656-18.922zm0 0" fill="#2c2f38"/><path d="M306.578 153.602a8.833 8.833 0 00-11.39-5.114 8.833 8.833 0 00-5.114 11.39 8.827 8.827 0 0011.39 5.114 8.833 8.833 0 005.114-11.39zm0 0" fill="#fff"/></svg>